<svg width="98" height="23" viewBox="0 0 98 23" fill="none" xmlns="http://www.w3.org/2000/svg">
<path fill-rule="evenodd" clip-rule="evenodd" d="M53.4999 3.01677C54.841 2.12067 56.3956 1.60315 58 1.5139V4.01316C56.2966 4.10292 54.6455 4.64998 53.2221 5.60104C51.6598 6.64491 50.4422 8.12861 49.7231 9.86451C49.642 10.0603 49.5677 10.2584 49.5001 10.4583C49.5055 9.29614 49.736 8.14012 50.1851 7.05585C50.8663 5.41131 52.0198 4.00571 53.4999 3.01677ZM67.9992 13.625C68.3292 12.6219 68.5 11.5674 68.5 10.5V10H68H59V1V0.5H58.5C56.5222 0.5 54.5888 1.08649 52.9443 2.1853C51.2998 3.28412 50.0181 4.8459 49.2612 6.67317C48.5043 8.50043 48.3063 10.5111 48.6921 12.4509C48.7715 12.8496 48.8747 13.2416 49.0008 13.625C49.0084 14.2028 49.0688 14.7813 49.1825 15.3534C49.5491 17.1962 50.4539 18.8889 51.7825 20.2175C53.1111 21.5461 54.8038 22.4509 56.6466 22.8175C58.4895 23.184 60.3996 22.9959 62.1355 22.2769C63.8714 21.5578 65.3551 20.3402 66.399 18.7779C67.4197 17.2503 67.975 15.4603 67.9992 13.625ZM66.9853 13.5H58.5V11H67.4861C67.4385 11.8558 67.269 12.6974 66.9853 13.5ZM96.9998 13.561C96.9653 18.7796 92.5014 23 87 23C81.4986 23 77.0347 18.7796 77.0002 13.561C76.6755 12.5973 76.5 11.5689 76.5 10.5C76.5 4.9533 81.2255 0.5 87 0.5C92.7745 0.5 97.5 4.9533 97.5 10.5C97.5 11.5689 97.3245 12.5973 96.9998 13.561ZM96.5 10.5253L96.5 10.5C96.5 5.55329 92.2712 1.5 87 1.5C81.7288 1.5 77.5 5.55329 77.5 10.5L77.5 10.5253C78.8142 6.73559 82.5708 4 87 4C91.4292 4 95.1858 6.73559 96.5 10.5253ZM38.9992 13.625C38.9667 16.0994 37.9696 18.4654 36.2175 20.2175C34.4359 21.9991 32.0196 23 29.5 23C26.9804 23 24.5641 21.9991 22.7825 20.2175C21.0304 18.4654 20.0333 16.0994 20.0008 13.625C19.672 12.6257 19.5 11.5717 19.5 10.5V10H20L29.5 10H39H39.5V10.5C39.5 11.5717 39.328 12.6257 38.9992 13.625ZM21.0147 13.5L29.5 13.5H37.9853C38.2681 12.7001 38.4384 11.8588 38.4861 11H29.5L20.5139 11C20.5616 11.8588 20.7319 12.7001 21.0147 13.5ZM10.9999 13.5497C10.9931 14.7803 10.7347 15.9982 10.2388 17.1355C9.73625 18.2881 8.99965 19.3354 8.07107 20.2175C7.14248 21.0997 6.04009 21.7994 4.82683 22.2769C3.61358 22.7543 2.31322 23 1 23L1 20.5H0.5V20V10.5V10H1H11H11.5V10.5C11.5 11.5371 11.3306 12.5658 10.9999 13.5497ZM1.5 13.5H9.95661C10.2573 12.6943 10.4352 11.8525 10.4853 11H1.5V13.5Z" fill="white"/>
</svg>
