<svg width="1346" height="3015" viewBox="0 0 1346 3015" fill="none" xmlns="http://www.w3.org/2000/svg">
<path d="M1300 3015C1295.03 3015 1291 3010.97 1291 3006C1291 3001.03 1295.03 2997 1300 2997C1304.97 2997 1309 3001.03 1309 3006C1309 3010.97 1304.97 3015 1300 3015Z" fill="white"/>
<path d="M1336 2901C1331.03 2901 1327 2896.97 1327 2892C1327 2887.03 1331.03 2883 1336 2883C1340.97 2883 1345 2887.03 1345 2892C1345 2896.97 1340.97 2901 1336 2901Z" fill="white"/>
<path d="M733 2882C737.971 2882 742 2877.97 742 2873C742 2868.03 737.971 2864 733 2864C728.029 2864 724 2868.03 724 2873C724 2877.97 728.029 2882 733 2882Z" fill="white"/>
<path d="M37 2882C41.9706 2882 46 2877.97 46 2873C46 2868.03 41.9706 2864 37 2864C32.0294 2864 28 2868.03 28 2873C28 2877.97 32.0294 2882 37 2882Z" fill="white"/>
<path d="M10 2998C14.9706 2998 19 2993.97 19 2989C19 2984.03 14.9706 2980 10 2980C5.02944 2980 1 2984.03 1 2989C1 2993.97 5.02944 2998 10 2998Z" fill="white"/>
<g filter="url(#filter0_b)">
<path d="M10 2308V2267L1 2258V2118M1 2118L13.5 2130.5H48.5L87.5 2091.5H157L363.5 2298H502.5L540.5 2260H670L750 2340H950.5L978 2312.5V2284.5M1 2118V1670.5M1 1670.5V1645L31 1615H934.5L978 1658.5V1684M1 1670.5L31 1640.5H934.5L978 1684M978 1684V2260.5M978 2260.5L1006 2288.5H1312L1336 2264.5M978 2260.5V2284.5M1336 2264.5L1345 2255.5M1336 2264.5V2288.5M1336 2264.5V1491.5M1345 2255.5V1500.5L1336 1491.5M1345 2255.5V2279.5L1336 2288.5M1336 2288.5L1312 2312.5H1006L978 2284.5M1336 1482V1491.5" stroke="white"/>
</g>
<path d="M815.5 649.5H529L394.5 784H188.5L155 817.5V1104.5L184 1133.5H602L790 1321.5M815.5 649.5L795 629H510L387.5 751.5H197.5L165 784V1079L195.5 1109.5H602L790 1297.5V1321.5M815.5 649.5L963.5 797.5M790 1321.5V1404M1 621.5V1206M1 621.5V591L31 561H225.5L244.5 580V642.5L264 662H354M1 621.5L31 591.5H225.5L264 630H354M1 117.5V36L36 1H1291.5L1345 54.5V778V788L1316 817H1306H983L963.5 797.5M21.5 117.5V36L44.5 13H1275L1335.5 73.5V787.5L1325.5 797.5H963.5M790 1404V1435L763 1462H705.5L626 1382.5H497.5L460 1420H325.5L118 1212.5H59.5L20.5 1251.5H15.5L1 1237V1206M790 1404L763 1431H705.5L626 1351.5H497.5L460 1389H325.5L118 1181.5H59.5L20.5 1220.5H15.5L1 1206" stroke="white"/>
<path d="M354.418 639C349.448 639 345.418 634.971 345.418 630C345.418 625.029 349.448 621 354.418 621C359.389 621 363.418 625.029 363.418 630C363.418 634.971 359.389 639 354.418 639Z" fill="white"/>
<path d="M22 127C17.0294 127 13 122.971 13 118C13 113.029 17.0294 109 22 109C26.9706 109 31 113.029 31 118C31 122.971 26.9706 127 22 127Z" fill="white"/>
<path d="M13 32C8.02944 32 4 27.9706 4 23C4 18.0294 8.02944 14 13 14C17.9706 14 22 18.0294 22 23C22 27.9706 17.9706 32 13 32Z" fill="white"/>
<path d="M814 658C809.029 658 805 653.971 805 649C805 644.029 809.029 640 814 640C818.971 640 823 644.029 823 649C823 653.971 818.971 658 814 658Z" fill="white"/>
<path d="M794 638C789.029 638 785 633.971 785 629C785 624.029 789.029 620 794 620C798.971 620 803 624.029 803 629C803 633.971 798.971 638 794 638Z" fill="white"/>
<path d="M388 759C383.029 759 379 754.971 379 750C379 745.029 383.029 741 388 741C392.971 741 397 745.029 397 750C397 754.971 392.971 759 388 759Z" fill="white"/>
<path d="M120.241 1191C115.27 1191 111.241 1186.97 111.241 1182C111.241 1177.03 115.27 1173 120.241 1173C125.211 1173 129.241 1177.03 129.241 1182C129.241 1186.97 125.211 1191 120.241 1191Z" fill="white"/>
<path d="M18 1226C13.0294 1226 9 1221.97 9 1217C9 1212.03 13.0294 1208 18 1208C22.9706 1208 27 1212.03 27 1217C27 1221.97 22.9706 1226 18 1226Z" fill="white"/>
<path d="M18 1257C13.0294 1257 9 1252.97 9 1248C9 1243.03 13.0294 1239 18 1239C22.9706 1239 27 1243.03 27 1248C27 1252.97 22.9706 1257 18 1257Z" fill="white"/>
<path d="M354.418 671.367C349.448 671.367 345.418 667.338 345.418 662.367C345.418 657.397 349.448 653.367 354.418 653.367C359.389 653.367 363.418 657.397 363.418 662.367C363.418 667.338 359.389 671.367 354.418 671.367Z" fill="white"/>
<path d="M388.241 792C383.27 792 379.241 787.971 379.241 783C379.241 778.029 383.27 774 388.241 774C393.211 774 397.241 778.029 397.241 783C397.241 787.971 393.211 792 388.241 792Z" fill="white"/>
<path d="M165 817C160.029 817 156 812.971 156 808C156 803.029 160.029 799 165 799C169.971 799 174 803.029 174 808C174 812.971 169.971 817 165 817Z" fill="white"/>
<path d="M118.241 1223C113.27 1223 109.241 1218.97 109.241 1214C109.241 1209.03 113.27 1205 118.241 1205C123.211 1205 127.241 1209.03 127.241 1214C127.241 1218.97 123.211 1223 118.241 1223Z" fill="white"/>
<path d="M627.241 1393C622.27 1393 618.241 1388.97 618.241 1384C618.241 1379.03 622.27 1375 627.241 1375C632.211 1375 636.241 1379.03 636.241 1384C636.241 1388.97 632.211 1393 627.241 1393Z" fill="white"/>
<path d="M326 1397C321.029 1397 317 1392.97 317 1388C317 1383.03 321.029 1379 326 1379C330.971 1379 335 1383.03 335 1388C335 1392.97 330.971 1397 326 1397Z" fill="white"/>
<path d="M790.241 1330C785.27 1330 781.241 1325.97 781.241 1321C781.241 1316.03 785.27 1312 790.241 1312C795.211 1312 799.241 1316.03 799.241 1321C799.241 1325.97 795.211 1330 790.241 1330Z" fill="white"/>
<path d="M286.52 1143C281.549 1143 277.52 1138.97 277.52 1134C277.52 1129.03 281.549 1125 286.52 1125C291.49 1125 295.52 1129.03 295.52 1134C295.52 1138.97 291.49 1143 286.52 1143Z" fill="white"/>
<path d="M268.279 1650C263.308 1650 259.279 1645.97 259.279 1641C259.279 1636.03 263.308 1632 268.279 1632C273.249 1632 277.279 1636.03 277.279 1641C277.279 1645.97 273.249 1650 268.279 1650Z" fill="white"/>
<path d="M709 1624C704.029 1624 700 1619.97 700 1615C700 1610.03 704.029 1606 709 1606C713.971 1606 718 1610.03 718 1615C718 1619.97 713.971 1624 709 1624Z" fill="white"/>
<path d="M10 2276C5.02944 2276 1 2271.97 1 2267C1 2262.03 5.02944 2258 10 2258C14.9706 2258 19 2262.03 19 2267C19 2271.97 14.9706 2276 10 2276Z" fill="white"/>
<path d="M10 2317C5.02944 2317 1 2312.97 1 2308C1 2303.03 5.02944 2299 10 2299C14.9706 2299 19 2303.03 19 2308C19 2312.97 14.9706 2317 10 2317Z" fill="white"/>
<path d="M978 1848C973.029 1848 969 1843.97 969 1839C969 1834.03 973.029 1830 978 1830C982.971 1830 987 1834.03 987 1839C987 1843.97 982.971 1848 978 1848Z" fill="white"/>
<path d="M1336 2296C1331.03 2296 1327 2291.97 1327 2287C1327 2282.03 1331.03 2278 1336 2278C1340.97 2278 1345 2282.03 1345 2287C1345 2291.97 1340.97 2296 1336 2296Z" fill="white"/>
<path d="M1336 1487C1331.03 1487 1327 1482.97 1327 1478C1327 1473.03 1331.03 1469 1336 1469C1340.97 1469 1345 1473.03 1345 1478C1345 1482.97 1340.97 1487 1336 1487Z" fill="white"/>
<path d="M1006 2321C1001.03 2321 997 2316.97 997 2312C997 2307.03 1001.03 2303 1006 2303C1010.97 2303 1015 2307.03 1015 2312C1015 2316.97 1010.97 2321 1006 2321Z" fill="white"/>
<path d="M1336 2287V2971L1318.5 2988.5M839.5 2873.5H733M733 2873.5H855.5L867.5 2885.5M733 2873.5H36L24 2885.5M1318.5 2988.5L1301 3006H988L970.5 2988.5M1318.5 2988.5H970.5M970.5 2988.5L867.5 2885.5M10 2989.5V2899.5L24 2885.5M867.5 2885.5H24" stroke="white"/>
<path d="M1300.5 2624L1327.5 2597V2504.5L1294 2471H1281.5M1300.5 2624L1318 2641.5V2680M1300.5 2624L1281.5 2605V2471M1281.5 2471H767.5L763 2475.5M742 2657.5H1281.5L1318 2694V2680M742 2657.5L728 2643.5M742 2657.5L754 2669.5H1000.5M728 2643.5V2635M728 2643.5H732.5H1281.5L1318 2680M763 2475.5L728 2510.5V2635M763 2475.5V2600L728 2635" stroke="white"/>
<path d="M37 2624L10 2597V2504.5L43.5 2471H56M37 2624L19.5 2641.5V2680M37 2624L56 2605V2471M56 2471H570L574.5 2475.5M595.5 2657.5H56L19.5 2694V2680M595.5 2657.5L609.5 2643.5M595.5 2657.5L583.5 2669.5H337M609.5 2643.5V2635M609.5 2643.5H605H56L19.5 2680M574.5 2475.5L609.5 2510.5V2635M574.5 2475.5V2600L609.5 2635" stroke="white"/>
<defs>
<filter id="filter0_b" x="-9.5" y="1472" width="1365" height="878.5" filterUnits="userSpaceOnUse" color-interpolation-filters="sRGB">
<feFlood flood-opacity="0" result="BackgroundImageFix"/>
<feGaussianBlur in="BackgroundImage" stdDeviation="5"/>
<feComposite in2="SourceAlpha" operator="in" result="effect1_backgroundBlur"/>
<feBlend mode="normal" in="SourceGraphic" in2="effect1_backgroundBlur" result="shape"/>
</filter>
</defs>
</svg>
