<svg width="376" height="583" viewBox="0 0 376 583" fill="none" xmlns="http://www.w3.org/2000/svg">
<path fill-rule="evenodd" clip-rule="evenodd" d="M371.049 7.63965C371.386 7.73438 371.741 7.78516 372.107 7.78516C374.257 7.78516 376 6.04297 376 3.89258C376 1.74316 374.257 0 372.107 0C369.958 0 368.214 1.74316 368.214 3.89258C368.214 4.11914 368.234 4.34082 368.271 4.55664C368.296 4.7002 368.328 4.84082 368.368 4.97852C368.505 5.45215 368.73 5.88867 369.024 6.26953L340.326 34.9668H244.728H244.521L244.375 35.1133L186.892 92.5957C186.179 91.7783 185.129 91.2627 183.959 91.2627C181.809 91.2627 180.066 93.0059 180.066 95.1553L180.066 95.2178H116.268H116.061L115.915 95.3643L101.598 109.681L101.452 109.827V110.034V121.827V122.034V228.5V228.707V240.5V240.707L101.597 240.853L111.571 250.861C111.209 251.453 111 252.148 111 252.893C111 255.043 112.743 256.785 114.893 256.785C116.508 256.785 117.895 255.802 118.483 254.399L275.401 285.99L275.45 286H275.5H358.631V318.009C356.603 318.144 355 319.831 355 321.893C355 323.955 356.603 325.642 358.631 325.776V330.009C356.603 330.144 355 331.831 355 333.893C355 335.955 356.603 337.642 358.631 337.776V558.744L347.333 570H322.79L288.377 535.631L288.231 535.484H288.024H233.05H232.843L232.697 535.631L216.364 551.92H158.863L69.4761 462.577L69.3296 462.431H69.1226H39.7109H39.5039L39.3574 462.577L22.6353 479.299H7.91113L1.5 472.888V32.3203L8.25635 25.6055H114.763L122.731 33.5742V34.8184V35.0264V46.8184V47.0264L122.879 47.1729L131.313 55.5635L131.459 55.709H131.666H164.597C165 57.4307 166.544 58.7129 168.388 58.7129C170.538 58.7129 172.281 56.9697 172.281 54.8203C172.281 52.6699 170.538 50.9277 168.388 50.9277C166.275 50.9277 164.556 52.6104 164.497 54.709H131.872L123.731 46.6104V36.0205L131.313 43.5635L131.459 43.709H131.666H164.597C165 45.4307 166.544 46.7129 168.388 46.7129C170.538 46.7129 172.281 44.9697 172.281 42.8203C172.281 40.6699 170.538 38.9277 168.388 38.9277C166.275 38.9277 164.556 40.6104 164.497 42.709H131.872L123.731 34.6104V33.3672V33.1592V21.3672V21.1592L123.585 21.0137L115.324 12.752L115.178 12.6055H114.97H8.05029H7.84375L7.69775 12.751L0.647461 19.7578L0.5 19.9043V20.1123V31.9043V32.1123V473.095V473.303V485.095V485.303L0.646484 485.448L7.35059 492.153L7.49707 492.299H7.7041H22.8423H23.0493L23.1958 492.153L39.918 475.431H68.9155L158.302 564.774L158.449 564.92H158.656H216.571H216.777L216.924 564.774L233.257 548.484H287.817L322.229 582.854L322.376 583H322.583H347.54H347.746L347.893 582.854L359.484 571.306L359.631 571.159V570.951V559.159V558.951V337.715C361.428 337.37 362.786 335.79 362.786 333.893C362.786 331.996 361.428 330.415 359.631 330.07V325.715C361.428 325.37 362.786 323.79 362.786 321.893C362.786 319.996 361.428 318.415 359.631 318.07V285.5V285V273.5V273H359.131H275.55L118.749 241.433C118.773 241.256 118.786 241.076 118.786 240.893C118.786 238.743 117.042 237 114.893 237C113.849 237 112.902 237.41 112.203 238.078L102.452 228.293V122.241L116.475 108.218H180.213C180.675 109.852 182.177 111.049 183.959 111.049C186.109 111.049 187.852 109.306 187.852 107.155C187.852 106.958 187.837 106.765 187.809 106.575C187.749 106.176 187.629 105.796 187.457 105.445L244.935 47.9668H340.533H340.74L340.886 47.8203L369.731 18.9766C370.389 19.4844 371.213 19.7852 372.107 19.7852C374.257 19.7852 376 18.043 376 15.8926C376 13.7432 374.257 12 372.107 12C369.958 12 368.214 13.7432 368.214 15.8926C368.214 16.7871 368.517 17.6123 369.024 18.2695L340.326 46.9668H244.728H244.521L244.375 47.1133L186.892 104.596C186.398 104.029 185.742 103.607 184.997 103.402C184.667 103.312 184.318 103.263 183.959 103.263C181.809 103.263 180.066 105.006 180.066 107.155L180.066 107.218H116.268H116.061L115.915 107.364L102.452 120.827V110.241L116.475 96.2178H180.213C180.675 97.8516 182.177 99.0488 183.959 99.0488C186.109 99.0488 187.852 97.3057 187.852 95.1553C187.852 94.542 187.71 93.9619 187.457 93.4453L244.935 35.9668H340.533H340.74L340.886 35.8203L369.731 6.97656C370.119 7.27637 370.565 7.50391 371.049 7.63965ZM118.749 253.433L275.55 285H358.631V274H275.5H275.45L275.401 273.99L118.483 242.399C117.895 243.802 116.508 244.785 114.893 244.785C112.743 244.785 111 243.043 111 240.893C111 240.148 111.209 239.453 111.571 238.861L102.452 229.71V240.293L112.203 250.078C112.902 249.41 113.849 249 114.893 249C117.042 249 118.786 250.743 118.786 252.893C118.786 253.076 118.773 253.256 118.749 253.433ZM347.893 570.854L358.631 560.155V570.744L347.333 582H322.79L288.377 547.631L288.231 547.484H288.024H233.05H232.843L232.697 547.631L216.364 563.92H158.863L69.4761 474.577L69.3296 474.431H69.1226H39.7109H39.5039L39.3574 474.577L22.6353 491.299H7.91113L1.5 484.888V474.302L7.35059 480.153L7.49707 480.299H7.7041H22.8423H23.0493L23.1958 480.153L39.918 463.431H68.9155L158.302 552.774L158.449 552.92H158.656H216.571H216.777L216.924 552.774L233.257 536.484H287.817L322.229 570.854L322.376 571H322.583H347.54H347.746L347.893 570.854ZM7.69775 24.751L1.5 30.9102V20.3203L8.25635 13.6055H114.763L122.731 21.5742V32.1592L115.324 24.752L115.178 24.6055H114.97H8.05029H7.84375L7.69775 24.751Z" fill="white"/>
</svg>
