<svg width="260" height="106" viewBox="0 0 260 106" fill="none" xmlns="http://www.w3.org/2000/svg">
<path fill-rule="evenodd" clip-rule="evenodd" d="M258 0.5H259.207L258.354 1.35355L251.354 8.35355L251.207 8.5H251H244.738C244.447 10.3615 242.836 11.7855 240.893 11.7855C238.949 11.7855 237.339 10.3615 237.047 8.5H68.7384C68.4522 10.327 66.8952 11.7326 65.0003 11.784V19V19.2071L64.8539 19.3536L34.6039 49.6036L7.26335 76.9441C7.59539 77.5171 7.78547 78.1827 7.78547 78.8927C7.78547 80.836 6.36162 82.4466 4.50031 82.7383V98.0471C6.36162 98.3389 7.78547 99.9495 7.78547 101.893C7.78547 104.043 6.04263 105.785 3.89273 105.785C1.74283 105.785 0 104.043 0 101.893C0 99.8753 1.53469 98.2163 3.50031 98.0195V82.7659C1.53469 82.5692 0 80.9102 0 78.8927C0 76.7428 1.74283 75 3.89273 75C4.96965 75 5.94443 75.4373 6.64918 76.144L33.8968 48.8964L46.5003 36.2929V25.5V25.2929L46.6468 25.1464L61.6888 10.1044C61.2545 9.47626 61 8.71421 61 7.89273C61 5.74284 62.7428 4 64.8927 4C66.9101 4 68.569 5.53453 68.7659 7.5H237.02C237.216 5.53453 238.875 4 240.893 4C242.91 4 244.569 5.53453 244.766 7.5H250.793L256.793 1.5H85.0003H68.5003V0.5H85.0003H258ZM62.3592 10.8482L47.5003 25.7071V35.2929L64.0003 18.7929V11.6827C63.3839 11.5381 62.824 11.247 62.3592 10.8482Z" fill="white"/>
</svg>
