<svg width="229" height="105" viewBox="0 0 229 105" fill="none" xmlns="http://www.w3.org/2000/svg">
<path fill-rule="evenodd" clip-rule="evenodd" d="M1.20647 0H-0.0006423L0.852919 0.853553L7.85292 7.85355L7.99936 8H8.20647H14.4684C14.76 9.86147 16.3707 11.2855 18.314 11.2855C20.2574 11.2855 21.8681 9.86147 22.1597 8H190.468C190.755 9.82702 192.312 11.2326 194.206 11.284V18.5V18.7071L194.353 18.8536L224.456 48.9571V52.0241C222.512 52.2408 221 53.8902 221 55.8927C221 57.8953 222.512 59.5447 224.456 59.7613V79V97.0241C222.512 97.2409 221 98.8902 221 100.893C221 103.043 222.743 104.785 224.892 104.785C227.042 104.785 228.785 103.043 228.785 100.893C228.785 98.9344 227.339 97.3138 225.456 97.0406V79V59.7449C227.339 59.4716 228.785 57.851 228.785 55.8927C228.785 53.9344 227.339 52.3139 225.456 52.0406V48.75V48.5429L225.31 48.3964L212.706 35.7929V25V24.7929L212.56 24.6464L197.518 9.60433C197.952 8.97624 198.207 8.2142 198.207 7.39273C198.207 5.24284 196.464 3.5 194.314 3.5C192.297 3.5 190.638 5.03453 190.441 7H22.1872C21.9903 5.03453 20.3314 3.5 18.314 3.5C16.2967 3.5 14.6378 5.03453 14.4409 7H8.41357L2.41357 1H174.206H190.706V0H174.206H1.20647ZM196.848 10.3482L211.706 25.2071V34.7929L195.206 18.2929V11.1827C195.823 11.0381 196.383 10.747 196.848 10.3482Z" fill="white"/>
</svg>
