<svg width="1346" height="1463" viewBox="0 0 1346 1463" fill="none" xmlns="http://www.w3.org/2000/svg">
<path d="M815.5 649.5H529L394.5 784H188.5L155 817.5V1104.5L184 1133.5H602L790 1321.5M815.5 649.5L795 629H510L387.5 751.5H197.5L165 784V1079L195.5 1109.5H602L790 1297.5V1321.5M815.5 649.5L963.5 797.5M790 1321.5V1404M963.5 797.5L983 817H1306H1316L1345 788V778V54.5L1291.5 1H36L1 36V117.5M963.5 797.5H1325.5L1335.5 787.5V73.5L1275 13H44.5L21.5 36V117.5M790 1404V1435L763 1462H705.5L626 1382.5H497.5L460 1420H325.5L118 1212.5H59.5L20.5 1251.5H15.5L1 1237V1206M790 1404L763 1431H705.5L626 1351.5H497.5L460 1389H325.5L118 1181.5H59.5L20.5 1220.5H15.5L1 1206M1 621.5V1206M1 621.5V591L31 561H225.5L244.5 580V642.5L264 662H354M1 621.5L31 591.5H225.5L264 630H354" stroke="white"/>
<path d="M354.418 639C349.448 639 345.418 634.971 345.418 630C345.418 625.029 349.448 621 354.418 621C359.389 621 363.418 625.029 363.418 630C363.418 634.971 359.389 639 354.418 639Z" fill="white"/>
<path d="M22 127C17.0294 127 13 122.971 13 118C13 113.029 17.0294 109 22 109C26.9706 109 31 113.029 31 118C31 122.971 26.9706 127 22 127Z" fill="white"/>
<path d="M13 32C8.02944 32 4 27.9706 4 23C4 18.0294 8.02944 14 13 14C17.9706 14 22 18.0294 22 23C22 27.9706 17.9706 32 13 32Z" fill="white"/>
<path d="M814 658C809.029 658 805 653.971 805 649C805 644.029 809.029 640 814 640C818.971 640 823 644.029 823 649C823 653.971 818.971 658 814 658Z" fill="white"/>
<path d="M794 638C789.029 638 785 633.971 785 629C785 624.029 789.029 620 794 620C798.971 620 803 624.029 803 629C803 633.971 798.971 638 794 638Z" fill="white"/>
<path d="M388 759C383.029 759 379 754.971 379 750C379 745.029 383.029 741 388 741C392.971 741 397 745.029 397 750C397 754.971 392.971 759 388 759Z" fill="white"/>
<path d="M120.241 1191C115.27 1191 111.241 1186.97 111.241 1182C111.241 1177.03 115.27 1173 120.241 1173C125.211 1173 129.241 1177.03 129.241 1182C129.241 1186.97 125.211 1191 120.241 1191Z" fill="white"/>
<path d="M18 1226C13.0294 1226 9 1221.97 9 1217C9 1212.03 13.0294 1208 18 1208C22.9706 1208 27 1212.03 27 1217C27 1221.97 22.9706 1226 18 1226Z" fill="white"/>
<path d="M18 1257C13.0294 1257 9 1252.97 9 1248C9 1243.03 13.0294 1239 18 1239C22.9706 1239 27 1243.03 27 1248C27 1252.97 22.9706 1257 18 1257Z" fill="white"/>
<path d="M354.418 671.368C349.448 671.368 345.418 667.339 345.418 662.368C345.418 657.398 349.448 653.368 354.418 653.368C359.389 653.368 363.418 657.398 363.418 662.368C363.418 667.339 359.389 671.368 354.418 671.368Z" fill="white"/>
<path d="M388.241 792C383.27 792 379.241 787.971 379.241 783C379.241 778.029 383.27 774 388.241 774C393.211 774 397.241 778.029 397.241 783C397.241 787.971 393.211 792 388.241 792Z" fill="white"/>
<path d="M165 817C160.029 817 156 812.971 156 808C156 803.029 160.029 799 165 799C169.971 799 174 803.029 174 808C174 812.971 169.971 817 165 817Z" fill="white"/>
<path d="M118.241 1223C113.27 1223 109.241 1218.97 109.241 1214C109.241 1209.03 113.27 1205 118.241 1205C123.211 1205 127.241 1209.03 127.241 1214C127.241 1218.97 123.211 1223 118.241 1223Z" fill="white"/>
<path d="M627.241 1393C622.27 1393 618.241 1388.97 618.241 1384C618.241 1379.03 622.27 1375 627.241 1375C632.211 1375 636.241 1379.03 636.241 1384C636.241 1388.97 632.211 1393 627.241 1393Z" fill="white"/>
<path d="M326 1397C321.029 1397 317 1392.97 317 1388C317 1383.03 321.029 1379 326 1379C330.971 1379 335 1383.03 335 1388C335 1392.97 330.971 1397 326 1397Z" fill="white"/>
<path d="M790.241 1330C785.27 1330 781.241 1325.97 781.241 1321C781.241 1316.03 785.27 1312 790.241 1312C795.211 1312 799.241 1316.03 799.241 1321C799.241 1325.97 795.211 1330 790.241 1330Z" fill="white"/>
<path d="M286.52 1143C281.549 1143 277.52 1138.97 277.52 1134C277.52 1129.03 281.549 1125 286.52 1125C291.49 1125 295.52 1129.03 295.52 1134C295.52 1138.97 291.49 1143 286.52 1143Z" fill="white"/>
</svg>
