<svg width="820" height="2332" viewBox="0 0 820 2332" fill="none" xmlns="http://www.w3.org/2000/svg">
<path fill-rule="evenodd" clip-rule="evenodd" d="M17.1797 0H16.9688L16.8218 0.151001L5.64307 11.6201L5.50098 11.7657V11.9691V75.7134C2.95312 76.1066 1 78.3619 1 81.0854C1 84.0858 3.37061 86.5182 6.29541 86.5182C9.21973 86.5182 11.5903 84.0858 11.5903 81.0854C11.5903 78.1558 9.33008 75.7677 6.50098 75.6567V12.1725L17.3906 1H782.13L816.554 36.3179V477.169L804.5 489.536V50.1873V49.9883L804.363 49.8438L769.67 13.1565L769.522 13H769.307H30.1724H29.957L29.8091 13.1565L18.6367 24.9709L18.5 25.1156V25.3146V85.2153C15.9253 85.5682 13.9434 87.74 13.9434 90.3663C13.9434 93.2389 16.314 95.5676 19.2388 95.5676C22.1631 95.5676 24.5337 93.2389 24.5337 90.3663C24.5337 87.5798 22.3032 85.3052 19.5 85.1714V25.5135L30.3877 14H769.092L803.5 50.3862V490.562L796.25 498H749.581L779.473 468.108C780.878 469.348 782.723 470.1 784.744 470.1C789.146 470.1 792.713 466.532 792.713 462.131C792.713 457.729 789.146 454.161 784.744 454.161C780.343 454.161 776.774 457.729 776.774 462.131C776.774 464.151 777.526 465.996 778.766 467.401L748.167 498H721.391L779.729 439.663C781.098 440.773 782.843 441.439 784.744 441.439C789.145 441.439 792.713 437.871 792.713 433.469C792.713 429.068 789.145 425.5 784.744 425.5C780.342 425.5 776.774 429.068 776.774 433.469C776.774 435.61 777.618 437.553 778.992 438.985L719.977 498H607.893V498.083H523.967H523.76L523.613 498.229L406.097 615.746C404.657 613.684 402.266 612.336 399.561 612.336C395.159 612.336 391.591 615.904 391.591 620.306C391.591 620.687 391.618 621.063 391.67 621.43H260.979H260.772L260.625 621.577L231.316 650.886L231.17 651.033V651.24V845.249L231.172 845.457V873.436V873.643L231.317 873.789L256.997 899.557L257.143 899.704H257.351H633.496L799.23 1065.35V1081.53C795.176 1081.91 792 1085.32 792 1089.47C792 1093.62 795.176 1097.03 799.23 1097.4V1211.18L789.562 1220.81H763.931C763.935 1220.7 763.938 1220.58 763.938 1220.47C763.938 1216.07 760.37 1212.5 755.968 1212.5C751.567 1212.5 747.999 1216.07 747.999 1220.47L748 1220.58C748.001 1220.66 748.003 1220.74 748.006 1220.81H738.883L668.279 1150.3L668.133 1150.15H667.926H500.059H499.853L499.706 1150.3L466.116 1183.8H316L169.515 1037.38C171.679 1035.96 173.107 1033.51 173.107 1030.72C173.107 1026.32 169.539 1022.75 165.138 1022.75C162.352 1022.75 159.899 1024.18 158.475 1026.35L132.852 1000.74L132.706 1000.59H132.499H104.249H104.042L103.896 1000.74L69.5083 1035.13H38.9307L25.5005 1021.7V495.544L39.6401 481.491H258.118L274.737 498.111V525.443V525.65L274.885 525.797L292.152 542.975L292.298 543.121H292.504H359.821C360.44 546.905 363.726 549.793 367.685 549.793C372.086 549.793 375.654 546.225 375.654 541.824C375.654 537.423 372.086 533.855 367.685 533.855C363.284 533.855 359.716 537.423 359.716 541.824C359.716 541.923 359.718 542.022 359.721 542.121H292.71L275.737 525.235V498.459L292.15 514.787L292.296 514.933H292.502H359.913C360.718 518.482 363.893 521.132 367.685 521.132C372.086 521.132 375.655 517.564 375.655 513.163C375.655 508.761 372.086 505.193 367.685 505.193C363.284 505.193 359.716 508.761 359.716 513.163C359.716 513.422 359.729 513.679 359.752 513.933H292.709L275.735 497.047V469.716V469.509L275.589 469.363L258.676 452.45L258.53 452.303H258.323H39.4321H39.2256L39.0796 452.449L24.6465 466.794L24.4985 466.94V467.148V1021.9L24.5005 1022.11V1050.09V1050.3L24.647 1050.44L38.3721 1064.17L38.5186 1064.31H38.7256H69.7173H69.9243L70.0708 1064.17L104.458 1029.78H132.293L158.868 1056.34C157.702 1057.73 157 1059.52 157 1061.47C157 1065.87 160.568 1069.44 164.969 1069.44C166.923 1069.44 168.713 1068.74 170.099 1067.57L315.441 1212.84L315.588 1212.99H315.795H466.324H466.531L466.677 1212.84L500.268 1179.34H602.08C602.065 1179.44 602.053 1179.54 602.042 1179.64C602.034 1179.72 602.026 1179.81 602.021 1179.89C602.007 1180.08 602 1180.27 602 1180.47C602 1184.87 605.568 1188.44 609.969 1188.44C614.371 1188.44 617.938 1184.87 617.938 1180.47C617.938 1180.28 617.932 1180.09 617.918 1179.91C617.905 1179.72 617.885 1179.53 617.859 1179.34H653.951L724.554 1249.85L724.701 1250H724.908H776H776.207L776.353 1249.85L800.083 1226.21L800.23 1226.07V1225.86V1211.59L813.852 1198.02L813.999 1197.88V1197.67V1042.18C817.417 1041.28 819.938 1038.17 819.938 1034.47C819.938 1030.07 816.371 1026.5 811.969 1026.5C809.704 1026.5 807.66 1027.44 806.209 1028.96L647.825 870.662L647.679 870.516H647.472H257.557L232.172 845.044V679.635L261.188 650.618H391.762C392.523 654.227 395.725 656.936 399.561 656.936C403.962 656.936 407.53 653.368 407.53 648.967C407.53 647.516 407.142 646.155 406.464 644.983L524.176 527.271H720.104H720.311L720.457 527.124L720.581 527H783.419H783.635L783.783 526.844L804.363 505.08L804.5 504.935V504.736V490.969L817.412 477.722L817.554 477.576V477.373V36.1145V35.9111L817.412 35.7655L782.699 0.151001L782.552 0H782.341H17.1797ZM803.5 491.995L796.819 498.849L796.672 499H796.461H748.581L721.581 526H783.204L803.5 504.537V491.995ZM747.167 499H720.391L720.309 499.083H720.102H524.174L406.631 616.626C407.205 617.727 407.53 618.978 407.53 620.306C407.53 624.707 403.962 628.275 399.561 628.275C395.895 628.275 392.807 625.8 391.877 622.43H261.187L232.17 651.447V678.222L260.627 649.765L260.774 649.618H260.981H391.617C391.6 649.403 391.591 649.186 391.591 648.967C391.591 644.566 395.159 640.998 399.561 640.998C402.145 640.998 404.442 642.228 405.898 644.135L523.615 526.417L523.762 526.271H523.969H620.539V526H720.167L747.167 499ZM132.292 1001.59L157.962 1027.25C157.454 1028.3 157.168 1029.48 157.168 1030.72C157.168 1035.12 160.737 1038.69 165.138 1038.69C166.384 1038.69 167.563 1038.41 168.613 1037.9L315.439 1184.65L315.586 1184.8H315.793H466.322H466.529L466.675 1184.65L500.266 1151.15H667.719L738.323 1221.67L738.469 1221.81H738.676H748.112C748.75 1225.57 752.024 1228.44 755.968 1228.44C759.912 1228.44 763.187 1225.57 763.825 1221.81H789.768H789.975L790.121 1221.67L799.23 1212.59V1225.65L775.793 1249H725.114L654.511 1178.48L654.365 1178.34H654.158H617.65C616.719 1174.97 613.633 1172.5 609.969 1172.5C606.306 1172.5 603.22 1174.97 602.288 1178.34H500.061H499.854L499.708 1178.48L466.118 1211.99H316.002L170.822 1066.88C172.136 1065.46 172.938 1063.56 172.938 1061.47C172.938 1057.07 169.371 1053.5 164.969 1053.5C162.88 1053.5 160.979 1054.3 159.558 1055.62L132.854 1028.93L132.708 1028.78H132.5H104.251H104.044L103.897 1028.93L69.5103 1063.31H38.9326L25.5005 1049.88V1023.11L38.3701 1035.98L38.5166 1036.13H38.7236H69.7153H69.9224L70.0688 1035.98L104.457 1001.59H132.292ZM800.23 1097.43C804.511 1097.3 807.938 1093.78 807.938 1089.47C807.938 1085.16 804.511 1081.64 800.23 1081.5V1065.14V1064.94L800.084 1064.79L634.057 898.85L633.91 898.704H633.703H257.559L232.172 873.23V846.46L256.995 871.369L257.141 871.516H257.349H647.265L805.562 1029.73C804.581 1031.05 804 1032.69 804 1034.47C804 1038.87 807.568 1042.44 811.969 1042.44C812.318 1042.44 812.662 1042.42 812.999 1042.37V1197.46L800.23 1210.18V1097.43ZM25.4985 494.136L39.0815 480.637L39.2275 480.491H39.4341H258.325H258.532L258.678 480.638L274.735 496.695V469.923L258.116 453.303H39.6382L25.4985 467.356V494.136ZM785.093 1329.05L811.98 1302.64L812.681 1303.36L785.944 1329.62V1343.26L808.551 1321.05C807.878 1320.19 807.479 1319.1 807.479 1317.93C807.479 1315.07 809.834 1312.76 812.739 1312.76C815.645 1312.76 818 1315.07 818 1317.93C818 1320.78 815.645 1323.09 812.739 1323.09C811.394 1323.09 810.167 1322.6 809.236 1321.78L786.061 1344.55V1787.61C788.59 1787.99 790.529 1790.13 790.529 1792.72C790.529 1795.41 788.439 1797.62 785.769 1797.87V2310.5V2310.71L785.619 2310.86L765.162 2330.95L765.016 2331.09H764.812H577.482H490.277H434.751V2330.09H490.277H577.482H764.607L784.769 2310.29V1797.87C783.913 1797.79 783.116 1797.51 782.429 1797.07L771.591 1807.72L771.445 1807.86H771.241H600.969C600.361 1810.06 598.319 1811.67 595.894 1811.67C592.988 1811.67 590.633 1809.36 590.633 1806.5C590.633 1805.66 590.839 1804.86 591.204 1804.16L579.152 1792.36V1806.67V1806.88L579.002 1807.03L563.338 1822.36L563.192 1822.5H562.988H447.727H447.523L447.377 1822.36L400.822 1776.69H326.942L304.819 1798.36L304.673 1798.5H304.469H226.206H226.001L225.855 1798.36L105.012 1679.72H65.6753L43.0259 1701.97L42.8799 1702.11H42.6753H22.2183H22.0137L21.8682 1701.97L13.3066 1693.56V1775.09C15.5737 1775.66 17.2485 1777.69 17.2485 1780.09C17.2485 1782.58 15.458 1784.66 13.0732 1785.15V1798.49C15.7437 1798.73 17.8335 1800.94 17.8335 1803.63C17.8335 1806.48 15.478 1808.8 12.5728 1808.8C9.66748 1808.8 7.3125 1806.48 7.3125 1803.63C7.3125 1800.94 9.40234 1798.73 12.0732 1798.49V1785.26L11.9878 1785.26C10.9272 1785.26 9.93994 1784.95 9.11377 1784.42L1.35059 1792.05L0.649414 1791.33L8.32129 1783.8C7.33838 1782.86 6.72754 1781.55 6.72754 1780.09C6.72754 1777.24 9.08252 1774.92 11.9878 1774.92L12.0732 1774.93V1743.92H12.1895V1630.73C9.74609 1630.29 7.89648 1628.18 7.89648 1625.65C7.89648 1623.13 9.74609 1621.02 12.1895 1620.57V1424.94V1424.73L12.3398 1424.59L31.9785 1405.35L32.1245 1405.21H32.3286H418.24C418.522 1402.62 420.757 1400.6 423.47 1400.6C426.184 1400.6 428.417 1402.62 428.7 1405.21H553.05H553.255L553.401 1405.35L578.592 1430.1L578.742 1430.24V1430.45V1445.06L578.859 1445.17V1445.38V1529.23C581.53 1529.47 583.619 1531.68 583.619 1534.37C583.619 1537.06 581.53 1539.27 578.859 1539.51V1702.47H579.152V1776.15L595.279 1791.94H770.919L784.769 1778.33V1766.89H784.944V1329.41V1329.2L785.093 1329.05ZM771.474 1792.79L784.769 1779.73V1787.58C782.098 1787.83 780.008 1790.03 780.008 1792.72C780.008 1794.19 780.631 1795.51 781.631 1796.46L771.036 1806.86H601.141C601.149 1806.74 601.154 1806.62 601.154 1806.5C601.154 1803.65 598.799 1801.33 595.894 1801.33C594.217 1801.33 592.725 1802.1 591.761 1803.3L579.152 1790.96V1777.55L594.726 1792.79L594.871 1792.94H595.075H771.124H771.328L771.474 1792.79ZM577.742 1775.96V1539.5C575.127 1539.2 573.099 1537.02 573.099 1534.37C573.099 1531.72 575.127 1529.54 577.742 1529.24V1445.48L552.963 1421.14H174.458C174.23 1423.78 171.97 1425.86 169.217 1425.86C166.463 1425.86 164.204 1423.78 163.976 1421.14H32.6499L13.3066 1440.08V1620.49C16.1426 1620.57 18.4175 1622.85 18.4175 1625.65C18.4175 1628.46 16.1426 1630.74 13.3066 1630.82V1692.56L13.5088 1692.35L22.4229 1701.11H42.4707L65.1201 1678.86L65.2661 1678.72H65.4707H105.216H105.42L105.566 1678.86L226.41 1797.5H304.265L326.388 1775.83L326.534 1775.69H326.738H401.027H401.231L401.377 1775.83L447.931 1821.5H562.784L578.152 1806.46V1791.38L578.009 1791.24L577.859 1791.1V1790.89V1776.28L577.742 1776.17V1775.96ZM577.742 1430.66V1444.07L553.518 1420.28L553.372 1420.14H553.167H174.447C174.165 1417.55 171.93 1415.53 169.217 1415.53C166.503 1415.53 164.27 1417.55 163.987 1420.14H32.4458H32.2417L32.0957 1420.28L13.1895 1438.8V1425.15L32.5327 1406.21H418.229C418.457 1408.86 420.717 1410.93 423.47 1410.93C426.224 1410.93 428.483 1408.86 428.711 1406.21H552.846L577.742 1430.66Z" fill="white"/>
</svg>
