<svg width="376" height="403" viewBox="0 0 376 403" fill="none" xmlns="http://www.w3.org/2000/svg">
<path fill-rule="evenodd" clip-rule="evenodd" d="M369.231 6.97623C369.889 7.48363 370.713 7.78547 371.608 7.78547C373.758 7.78547 375.5 6.04263 375.5 3.89273C375.5 1.74284 373.758 0 371.608 0C369.458 0 367.715 1.74284 367.715 3.89273C367.715 4.78748 368.017 5.61172 368.524 6.26917L339.826 34.9674H244.229H244.022L243.875 35.1138L186.392 92.5969C185.678 91.7793 184.628 91.2627 183.458 91.2627C181.308 91.2627 179.566 93.0055 179.566 95.1554C179.566 95.1764 179.566 95.1974 179.566 95.2183H115.768H115.561L115.414 95.3648L101.098 109.681L100.952 109.828V110.035V123.828V124.035V204.801V205.008V218.801V219.008L101.098 219.154L113.641 231.741L113.787 231.888H113.995H277.326L356.429 310.949C354.938 311.494 353.874 312.926 353.874 314.606C353.874 316.756 355.617 318.498 357.767 318.498C357.89 318.498 358.012 318.492 358.132 318.481V376.739L346.833 387.995H322.29L287.877 353.626L287.731 353.48H287.524H232.55H232.343L232.197 353.626L215.864 369.916H158.363L71.3994 282.994C71.698 282.444 71.8675 281.813 71.8675 281.142C71.8675 278.992 70.1246 277.249 67.9747 277.249C66.0694 277.249 64.4838 278.618 64.1477 280.426H39.2111H39.004L38.8575 280.572L22.1355 297.294H7.41124L1 290.883V34.3207L7.75637 27.6058H114.264L122.232 35.5742V48.8186V49.0264L122.379 49.173L130.813 57.564L130.959 57.7096H131.166H164.098C164.5 59.431 166.045 60.7132 167.889 60.7132C170.039 60.7132 171.782 58.9704 171.782 56.8205C171.782 54.6706 170.039 52.9277 167.889 52.9277C165.776 52.9277 164.056 54.611 163.998 56.7096H131.372L123.232 48.6107V36.0214L130.813 43.5641L130.959 43.7096H131.166H164.098C164.5 45.4311 166.045 46.7132 167.889 46.7132C170.038 46.7132 171.781 44.9704 171.781 42.8205C171.781 40.6706 170.038 38.9277 167.889 38.9277C165.776 38.9277 164.056 40.611 163.998 42.7096H131.372L123.232 34.6107V21.3671V21.16L123.085 21.0136L114.824 12.7523L114.678 12.6058H114.471H7.55016H7.34395L7.1977 12.7512L0.147536 19.7581L0 19.9047V20.1127V33.9047V34.1127V291.09V291.297V305.09V305.297L0.14645 305.444L6.8506 312.148L6.99705 312.294H7.20415H22.3426H22.5497L22.6961 312.148L39.4182 295.426H64.0922C64.2376 297.443 65.9203 299.034 67.9747 299.034C69.0899 299.034 70.0955 298.565 70.8052 297.814L157.802 384.77L157.949 384.916H158.156H216.071H216.278L216.424 384.77L232.757 368.48H287.317L321.729 402.849L321.876 402.995H322.083H347.04H347.246L347.393 402.849L358.985 391.301L359.132 391.155V390.947V377.155V376.947V318.252C360.609 317.699 361.66 316.276 361.66 314.606C361.66 312.936 360.609 311.512 359.132 310.959V304.252C360.609 303.699 361.66 302.276 361.66 300.606C361.66 298.456 359.917 296.713 357.767 296.713C357.715 296.713 357.663 296.714 357.611 296.716L277.886 217.034L277.74 216.888H277.533H114.202L101.952 204.594V124.242L115.975 110.218H179.713C180.176 111.851 181.678 113.048 183.459 113.048C185.609 113.048 187.352 111.305 187.352 109.155C187.352 108.542 187.21 107.962 186.957 107.446L244.436 49.9674H340.033H340.24L340.386 49.8209L369.231 20.9762C369.889 21.4837 370.713 21.7855 371.608 21.7855C373.758 21.7855 375.5 20.0426 375.5 17.8927C375.5 15.7428 373.758 14 371.608 14C369.458 14 367.715 15.7428 367.715 17.8927C367.715 18.7875 368.017 19.6117 368.524 20.2692L339.826 48.9674H244.229H244.022L243.875 49.1138L186.392 106.596C185.679 105.779 184.629 105.263 183.459 105.263C181.309 105.263 179.566 107.006 179.566 109.155C179.566 109.176 179.566 109.197 179.566 109.218H115.768H115.561L115.414 109.364L101.952 122.828V110.242L115.975 96.2183H179.713C180.175 97.8516 181.676 99.0482 183.458 99.0482C185.608 99.0482 187.351 97.3053 187.351 95.1554C187.351 94.5423 187.209 93.9624 186.957 93.4465L244.436 35.9674H340.033H340.24L340.386 35.821L369.231 6.97623ZM71.3994 296.994L158.363 383.916H215.864L232.197 367.626L232.343 367.48H232.55H287.524H287.731L287.877 367.626L322.29 401.995H346.833L358.132 390.739V378.151L347.393 388.849L347.246 388.995H347.04H322.083H321.876L321.729 388.849L287.317 354.48H232.757L216.424 370.77L216.278 370.916H216.071H158.156H157.949L157.802 370.77L70.8052 283.814C70.0955 284.565 69.0899 285.034 67.9747 285.034C65.9203 285.034 64.2377 283.443 64.0922 281.426H39.4182L22.6961 298.148L22.5497 298.294H22.3426H7.20415H6.99705L6.8506 298.148L1 292.297V304.883L7.41124 311.294H22.1355L38.8575 294.572L39.004 294.426H39.2111H64.1477C64.4839 292.618 66.0694 291.249 67.9747 291.249C70.1246 291.249 71.8675 292.992 71.8675 295.142C71.8675 295.813 71.698 296.444 71.3994 296.994ZM357.767 310.713C357.89 310.713 358.012 310.719 358.132 310.73V304.481C358.063 304.487 357.993 304.492 357.923 304.495C357.889 304.496 357.856 304.497 357.823 304.497C357.804 304.498 357.786 304.498 357.767 304.498C355.617 304.498 353.874 302.756 353.874 300.606C353.874 298.926 354.938 297.494 356.429 296.949L277.326 217.888H113.995H113.787L113.641 217.741L101.952 206.011V218.594L114.202 230.888H277.533H277.74L277.886 231.034L357.611 310.716C357.64 310.715 357.669 310.714 357.698 310.714C357.721 310.713 357.744 310.713 357.767 310.713ZM7.1977 26.7511L1 32.9108V20.3207L7.75637 13.6058H114.264L122.232 21.5742V34.1599L114.824 26.7522L114.678 26.6058H114.471H7.55016H7.34395L7.1977 26.7511Z" fill="white"/>
</svg>
