<svg width="383" height="256" viewBox="0 0 383 256" fill="none" xmlns="http://www.w3.org/2000/svg">
<path fill-rule="evenodd" clip-rule="evenodd" d="M18.0771 6.58105C18.7861 7.32324 19.7852 7.78516 20.8926 7.78516C22.9277 7.78516 24.5981 6.22363 24.7705 4.2334H336.259L351.278 20.0107V154.048C349.42 154.343 348 155.952 348 157.893C348 158.688 348.238 159.43 348.648 160.046L346.294 162.202H334.239L320.516 149.631L320.372 149.5H320.178H296H295.806L295.662 149.631L222.205 216.886H174.984L161.581 204.641L161.438 204.51H161.244H118.532C117.975 203.043 116.555 202 114.893 202C112.743 202 111 203.743 111 205.893C111 206.773 111.292 207.585 111.784 208.237L87.4502 230.5H17.7227L8.67334 222.241V134.707C10.4492 134.346 11.7852 132.775 11.7852 130.893C11.7852 129.011 10.4492 127.439 8.67334 127.078V16.4297L18.0771 6.58105ZM7.67334 163.19V134.779C5.62549 134.666 3.99951 132.97 3.99951 130.893C3.99951 128.816 5.62549 127.119 7.67334 127.006V16.2295V16.0293L7.81201 15.8848L17.4771 5.76172C17.2422 5.33398 17.0854 4.85645 17.0259 4.34961C17.0083 4.19922 16.9995 4.04688 16.9995 3.89258C16.9995 1.74316 18.7427 0 20.8926 0C22.8179 0 24.4165 1.39746 24.7295 3.2334H336.473H336.688L336.835 3.38867L352.141 19.4658L352.278 19.6104V19.8105V154.019C354.247 154.212 355.785 155.873 355.785 157.893C355.785 159.913 354.247 161.573 352.278 161.767V238.019C354.247 238.212 355.785 239.873 355.785 241.893C355.785 243.452 354.868 244.798 353.544 245.419L362.219 254.5H383V255.5H362.005H361.792L361.644 255.346L352.471 245.742C352.282 245.771 352.089 245.785 351.893 245.785C349.743 245.785 348 244.043 348 241.893C348 239.952 349.42 238.343 351.278 238.048V161.737C350.527 161.618 349.848 161.284 349.305 160.801L346.827 163.07L346.683 163.202H346.489H334.044H333.85L333.707 163.07L319.983 150.5H296.194L222.737 217.755L222.594 217.886H222.399H174.791H174.597L174.453 217.755L161.05 205.51H118.767C118.779 205.636 118.785 205.764 118.785 205.893C118.785 208.043 117.042 209.785 114.893 209.785C113.983 209.785 113.147 209.475 112.485 208.952L87.9819 231.369L87.8384 231.5H87.644H17.5288H17.335L17.1919 231.369L8.67334 223.595V237.281V237.481L8.53564 237.626L1.3623 245.161L0.638184 244.472L7.67334 237.082V222.683L7.66309 222.673L7.5 222.524V222.304V163.19H7.67334Z" fill="white"/>
</svg>
