<svg width="62" height="364" viewBox="0 0 62 364" fill="none" xmlns="http://www.w3.org/2000/svg">
<path d="M57.0039 348.521V338.171H54.9939V348.181H48.2839V350.191H55.3339C56.2539 350.191 57.0039 349.441 57.0039 348.521ZM50.3039 332.622V329.272C50.3039 327.982 51.3539 326.922 52.6439 326.922C53.9439 326.922 54.9939 327.982 54.9939 329.272V332.622C54.9939 333.912 53.9439 334.962 52.6439 334.962C51.3539 334.962 50.3039 333.912 50.3039 332.622ZM57.0039 332.622V329.272C57.0039 326.872 55.0439 324.912 52.6439 324.912C50.2439 324.912 48.2939 326.872 48.2939 329.272V332.622C48.2939 335.022 50.2439 336.972 52.6439 336.972C55.0439 336.972 57.0039 335.022 57.0039 332.622ZM50.2939 321.706V313.666H52.0039V320.366H54.0139V313.666H57.0039V311.656H49.9639C49.0339 311.656 48.2839 312.406 48.2839 313.336V322.046C48.2839 322.966 49.0339 323.716 49.9639 323.716H57.0039V321.706H50.2939ZM57.0039 301.738C57.0039 299.338 55.0539 297.378 52.6539 297.378C50.2539 297.378 48.2939 299.338 48.2939 301.738V309.458H50.3039V301.738C50.3039 300.448 51.3639 299.398 52.6539 299.398C53.9439 299.398 54.9939 300.448 54.9939 301.738V307.448H51.9839V309.458H57.0039V301.738ZM55.0139 296.236H57.0239L57.0039 289.656V289.256H56.9939L56.9839 284.306L54.9739 284.316L54.9839 289.256H50.2939L50.2839 284.306L48.2739 284.316L48.2839 289.256H48.2739V291.266H48.2939L48.3139 296.236H50.3239L50.3039 291.266H54.9939L55.0139 296.236ZM50.6539 280.085L56.8039 272.575L56.8539 272.485C56.9839 272.245 57.0439 271.975 57.0439 271.715C57.0439 271.415 56.9639 271.115 56.8039 270.845C56.4939 270.335 55.9539 270.035 55.3639 270.035H48.2839V272.045H54.6439L48.4839 279.555L48.4439 279.655C48.1639 280.175 48.1839 280.785 48.4939 281.295C48.8039 281.795 49.3339 282.095 49.9239 282.095H57.0039V280.085H50.6539ZM56.9939 257.287H53.3539C52.4239 257.287 51.6739 258.037 51.6739 258.967V264.057H53.6839V259.297H56.9939V257.287ZM57.0039 264.057V260.637H54.9939V264.057C54.9939 265.347 53.9439 266.407 52.6439 266.407C51.3539 266.407 50.3039 265.347 50.3039 264.057V257.357H48.2939V264.057C48.2939 266.457 50.2439 268.417 52.6439 268.417C55.0439 268.417 57.0039 266.457 57.0039 264.057Z" fill="white"/>
<path d="M26.2463 362.819H13.6191C12.5604 362.819 11.5448 362.4 10.795 361.652L2.55477 353.437C1.802 352.686 1.37891 351.667 1.37891 350.604L1.37891 313.121C1.37891 310.911 3.16976 309.121 5.3789 309.121H34.4865C36.6957 309.121 38.4865 310.911 38.4865 313.121V350.604C38.4865 351.667 38.0634 352.686 37.3106 353.437L29.0704 361.652C28.3206 362.4 27.3051 362.819 26.2463 362.819Z" stroke="white" stroke-width="2"/>
<path d="M5.3789 247.496H34.4865C36.6957 247.496 38.4865 249.287 38.4865 251.496V297.195C38.4865 299.404 36.6957 301.195 34.4865 301.195H5.37891C3.16977 301.195 1.37891 299.404 1.37891 297.195L1.37891 251.496C1.37891 249.287 3.16976 247.496 5.3789 247.496Z" stroke="white" stroke-width="2"/>
<path d="M5.3789 185.872H34.4865C36.6957 185.872 38.4865 187.663 38.4865 189.872V235.571C38.4865 237.78 36.6957 239.571 34.4865 239.571H5.37891C3.16977 239.571 1.37891 237.78 1.37891 235.571L1.37891 189.872C1.37891 187.663 3.16976 185.872 5.3789 185.872Z" stroke="white" stroke-width="2"/>
<path d="M5.3789 124.248H34.4865C36.6957 124.248 38.4865 126.039 38.4865 128.248V173.947C38.4865 176.156 36.6957 177.947 34.4865 177.947H5.37891C3.16977 177.947 1.37891 176.156 1.37891 173.947L1.37891 128.248C1.37891 126.039 3.16976 124.248 5.3789 124.248Z" stroke="white" stroke-width="2"/>
<path d="M5.3789 62.6242H34.4865C36.6957 62.6242 38.4865 64.415 38.4865 66.6242V112.323C38.4865 114.532 36.6957 116.323 34.4865 116.323H5.37891C3.16977 116.323 1.37891 114.532 1.37891 112.323L1.37891 66.6242C1.37891 64.415 3.16976 62.6242 5.3789 62.6242Z" stroke="white" stroke-width="2"/>
<path d="M7.41382 5.31855L36.5214 22.5185C37.7393 23.2382 38.4865 24.5476 38.4865 25.9622V50.6987C38.4865 52.9079 36.6957 54.6987 34.4865 54.6987H5.37891C3.16977 54.6987 1.37891 52.9079 1.37891 50.6987L1.37891 8.76225C1.37891 5.66505 4.74736 3.74291 7.41382 5.31855Z" stroke="white" stroke-width="2"/>
</svg>
