<svg width="589" height="181" viewBox="0 0 589 181" fill="none" xmlns="http://www.w3.org/2000/svg">
<path fill-rule="evenodd" clip-rule="evenodd" d="M39.1305 11.1117C40.6025 11.1117 41.8825 10.3277 42.5865 9.07974L41.8665 8.88774C41.2265 9.89574 40.2985 10.3917 39.1305 10.3917C37.3545 10.3917 36.0425 9.06374 35.9145 7.30374H43.0985C43.0985 7.25126 43.102 7.21283 43.1057 7.17198C43.11 7.12567 43.1145 7.07626 43.1145 6.99974C43.1145 4.71174 41.3545 2.91974 39.1305 2.91974C36.8905 2.91974 35.1465 4.74374 35.1465 7.03174C35.1465 9.30374 36.8905 11.1117 39.1305 11.1117ZM35.9145 6.71174C36.0425 4.93574 37.4025 3.60774 39.1305 3.60774C40.8585 3.60774 42.2025 4.90374 42.3305 6.71174H35.9145ZM47.0067 6.99974L43.8067 10.9997H44.7347L47.4707 7.57574L50.2067 10.9997H51.1347L47.9347 6.99974L51.1347 2.99974H50.2067L47.4707 6.42374L44.7347 2.99974H43.8067L47.0067 6.99974ZM60.7314 6.96774C60.7314 4.72774 59.0514 2.88774 56.8914 2.88774C55.3074 2.88774 54.0434 3.62374 53.3874 4.91974V2.99974H52.6194V13.3997H53.3874V9.11174C54.0434 10.3437 55.3554 11.0797 56.8914 11.0797C59.0994 11.0797 60.7314 9.27174 60.7314 6.96774ZM53.3874 6.51974C53.3874 4.93574 54.8594 3.60774 56.6514 3.60774C58.5554 3.60774 59.9794 5.04774 59.9794 6.96774C59.9794 8.95174 58.6034 10.3597 56.6514 10.3437C55.0194 10.3437 53.3874 8.99974 53.3874 7.62374V6.51974ZM63.3717 10.9997V0.279742H62.6037V10.9997H63.3717ZM69.3816 11.1117C71.6376 11.1117 73.4936 9.28774 73.4936 7.03174C73.4936 4.77574 71.6376 2.91974 69.3816 2.91974C67.1256 2.91974 65.2696 4.77574 65.2696 7.03174C65.2696 9.28774 67.1256 11.1117 69.3816 11.1117ZM69.3816 3.60774C71.2376 3.60774 72.7416 5.17574 72.7416 7.03174C72.7416 8.93574 71.1896 10.4077 69.3816 10.4077C67.5416 10.4077 66.0376 8.88774 66.0376 7.03174C66.0376 5.11174 67.5736 3.60774 69.3816 3.60774ZM75.2741 10.9997H76.0421V5.70374C76.0421 4.85574 77.0021 3.73574 78.3941 3.63974C79.0661 3.59174 79.5301 3.67174 80.1541 3.89574L80.2821 3.09574C79.8501 2.98374 79.1621 2.87174 78.5701 2.91974C77.1941 3.03174 76.3941 3.68774 76.0421 4.56774V2.99974H75.2741V10.9997ZM85.1305 11.1117C86.6025 11.1117 87.8825 10.3277 88.5865 9.07974L87.8665 8.88774C87.2265 9.89574 86.2985 10.3917 85.1305 10.3917C83.3545 10.3917 82.0425 9.06374 81.9145 7.30374H89.0985C89.0985 7.25133 89.102 7.21293 89.1057 7.17215L89.1057 7.17198C89.11 7.12567 89.1145 7.07626 89.1145 6.99974C89.1145 4.71174 87.3545 2.91974 85.1305 2.91974C82.8905 2.91974 81.1465 4.74374 81.1465 7.03174C81.1465 9.30374 82.8905 11.1117 85.1305 11.1117ZM81.9145 6.71174C82.0425 4.93574 83.4025 3.60774 85.1305 3.60774C86.8585 3.60774 88.2025 4.90374 88.3305 6.71174H81.9145ZM95.9559 5.83174C95.9559 4.83974 97.0759 3.73574 98.5479 3.63974C100.212 3.54374 101.444 4.87174 101.444 7.03174V10.9997H102.212V7.03174C102.212 4.59974 100.788 2.91974 98.9319 2.91974C97.5079 2.91974 96.5799 3.57574 95.9559 4.55174V2.99974H95.2039V10.9997H95.9559V5.83174ZM107.99 11.1117C109.462 11.1117 110.742 10.3277 111.446 9.07974L110.726 8.88774C110.086 9.89574 109.158 10.3917 107.99 10.3917C106.214 10.3917 104.902 9.06374 104.774 7.30374H111.958C111.958 7.25133 111.961 7.21293 111.965 7.17215L111.965 7.17198C111.969 7.12567 111.974 7.07626 111.974 6.99974C111.974 4.71174 110.214 2.91974 107.99 2.91974C105.75 2.91974 104.006 4.74374 104.006 7.03174C104.006 9.30374 105.75 11.1117 107.99 11.1117ZM104.774 6.71174C104.902 4.93574 106.262 3.60774 107.99 3.60774C109.718 3.60774 111.062 4.90374 111.19 6.71174H104.774ZM115.959 10.9997H116.775L119.079 4.19974L121.367 10.9997H122.183L125.303 2.99974H124.487L121.815 9.87974L119.495 2.99974H118.679L116.343 9.87974L113.671 2.99974H112.855L115.959 10.9997ZM131.511 10.9997V5.83174C131.511 4.87174 132.519 3.76774 134.103 3.65574C135.831 3.54374 136.983 4.87174 136.983 7.03174V10.9997H137.735V7.03174C137.735 4.56774 136.391 2.91974 134.487 2.91974C133.111 2.91974 131.895 3.62374 131.511 4.58374V0.279742H130.759V10.9997H131.511ZM143.616 11.1117C145.872 11.1117 147.728 9.28774 147.728 7.03174C147.728 4.77574 145.872 2.91974 143.616 2.91974C141.36 2.91974 139.504 4.77574 139.504 7.03174C139.504 9.28774 141.36 11.1117 143.616 11.1117ZM143.616 3.60774C145.472 3.60774 146.976 5.17574 146.976 7.03174C146.976 8.93574 145.424 10.4077 143.616 10.4077C141.776 10.4077 140.272 8.88774 140.272 7.03174C140.272 5.11174 141.808 3.60774 143.616 3.60774ZM149.508 10.9997H150.276V5.70374C150.276 4.85574 151.236 3.73574 152.628 3.63974C153.3 3.59174 153.764 3.67174 154.388 3.89574L154.516 3.09574C154.084 2.98374 153.396 2.87174 152.804 2.91974C151.428 3.03174 150.628 3.68774 150.276 4.56774V2.99974H149.508V10.9997ZM155.758 0.599742C155.758 0.887742 155.95 1.06374 156.222 1.06374C156.51 1.06374 156.686 0.887742 156.686 0.599742C156.686 0.311742 156.51 0.135742 156.222 0.135742C155.95 0.135742 155.758 0.311742 155.758 0.599742ZM156.59 2.99974H155.822V10.9997H156.59V2.99974ZM158.552 10.9997H165.192V10.2317H159.672L165.032 3.57574V2.99974H158.76V3.75174H163.944L158.552 10.4237V10.9997ZM170.491 11.1117C172.747 11.1117 174.603 9.28774 174.603 7.03174C174.603 4.77574 172.747 2.91974 170.491 2.91974C168.235 2.91974 166.379 4.77574 166.379 7.03174C166.379 9.28774 168.235 11.1117 170.491 11.1117ZM170.491 3.60774C172.347 3.60774 173.851 5.17574 173.851 7.03174C173.851 8.93574 172.299 10.4077 170.491 10.4077C168.651 10.4077 167.147 8.88774 167.147 7.03174C167.147 5.11174 168.683 3.60774 170.491 3.60774ZM177.471 5.83174C177.471 4.83974 178.591 3.73574 180.063 3.63974C181.727 3.54374 182.959 4.87174 182.959 7.03174V10.9997H183.727V7.03174C183.727 4.59974 182.303 2.91974 180.447 2.91974C179.023 2.91974 178.095 3.57574 177.471 4.55174V2.99974H176.719V10.9997H177.471V5.83174ZM185.505 8.66374C185.825 10.1197 186.945 11.1117 188.497 11.1117C190.113 11.1117 191.329 10.2157 191.329 9.07974C191.329 8.19974 190.833 7.63974 189.409 6.91974C189.111 6.77038 188.798 6.63496 188.367 6.44841L188.273 6.40774C186.929 5.79974 186.625 5.51174 186.625 4.85574C186.625 4.10374 187.441 3.54374 188.529 3.57574C189.665 3.60774 190.369 4.21574 190.481 5.25574L191.169 5.15974C191.073 3.76774 190.001 2.87174 188.465 2.90374C186.945 2.91974 185.857 3.71974 185.857 4.82374C185.857 5.75174 186.337 6.29574 187.665 6.87174C187.985 6.99974 188.497 7.22374 188.945 7.43174C190.145 8.02374 190.529 8.42374 190.529 9.07974C190.529 9.81574 189.649 10.4237 188.497 10.4237C187.393 10.4237 186.513 9.63974 186.257 8.58374L185.505 8.66374ZM196.8 7.03174C196.8 9.30374 198.448 11.1117 200.672 11.1117C202.224 11.1117 203.664 10.2477 204.16 9.03174V10.9997H204.912V0.279742H204.16V4.83974C203.472 3.55974 202.336 2.91974 200.672 2.91974C198.448 2.91974 196.8 4.72774 196.8 7.03174ZM200.912 10.3917C198.96 10.3917 197.568 8.95174 197.568 7.03174C197.568 5.39974 198.656 3.63974 200.912 3.63974C202.736 3.63974 204.16 5.03174 204.16 6.34374V7.73574C204.16 9.06374 202.544 10.3917 200.912 10.3917ZM206.851 0.599742C206.851 0.887742 207.043 1.06374 207.315 1.06374C207.603 1.06374 207.779 0.887742 207.779 0.599742C207.779 0.311742 207.603 0.135742 207.315 0.135742C207.043 0.135742 206.851 0.311742 206.851 0.599742ZM207.683 2.99974H206.915V10.9997H207.683V2.99974ZM209.599 8.66374C209.919 10.1197 211.039 11.1117 212.591 11.1117C214.207 11.1117 215.423 10.2157 215.423 9.07974C215.423 8.19974 214.927 7.63974 213.503 6.91974C213.204 6.77038 212.892 6.63496 212.461 6.44841L212.367 6.40774C211.023 5.79974 210.719 5.51174 210.719 4.85574C210.719 4.10374 211.535 3.54374 212.623 3.57574C213.759 3.60774 214.463 4.21574 214.575 5.25574L215.263 5.15974C215.167 3.76774 214.095 2.87174 212.559 2.90374C211.039 2.91974 209.951 3.71974 209.951 4.82374C209.951 5.75174 210.431 6.29574 211.759 6.87174C212.079 6.99974 212.591 7.22374 213.039 7.43174C214.239 8.02374 214.623 8.42374 214.623 9.07974C214.623 9.81574 213.743 10.4237 212.591 10.4237C211.487 10.4237 210.607 9.63974 210.351 8.58374L209.599 8.66374ZM220.946 11.1117C222.098 11.1117 223.202 10.6157 223.97 9.79974L223.442 9.27174C222.754 9.99174 221.906 10.3757 220.946 10.3757C219.09 10.3757 217.602 8.87174 217.602 7.03174C217.602 5.17574 219.106 3.65574 220.946 3.65574C221.89 3.65574 222.834 4.08774 223.426 4.75974L223.954 4.23174C223.186 3.39974 222.098 2.91974 220.946 2.91974C218.69 2.91974 216.834 4.77574 216.834 7.03174C216.834 9.27174 218.674 11.1117 220.946 11.1117ZM229.35 11.1117C231.606 11.1117 233.462 9.28774 233.462 7.03174C233.462 4.77574 231.606 2.91974 229.35 2.91974C227.094 2.91974 225.238 4.77574 225.238 7.03174C225.238 9.28774 227.094 11.1117 229.35 11.1117ZM229.35 3.60774C231.206 3.60774 232.71 5.17574 232.71 7.03174C232.71 8.93574 231.158 10.4077 229.35 10.4077C227.51 10.4077 226.006 8.88774 226.006 7.03174C226.006 5.11174 227.542 3.60774 229.35 3.60774ZM241.25 2.99974L238.242 10.0557L235.122 2.99974H234.306L237.842 10.9997H238.658L242.066 2.99974H241.25ZM246.99 11.1117C248.462 11.1117 249.742 10.3277 250.446 9.07974L249.726 8.88774C249.086 9.89574 248.158 10.3917 246.99 10.3917C245.214 10.3917 243.902 9.06374 243.774 7.30374H250.958C250.958 7.25133 250.961 7.21294 250.965 7.17216V7.17198V7.17185C250.969 7.12557 250.974 7.07618 250.974 6.99974C250.974 4.71174 249.214 2.91974 246.99 2.91974C244.75 2.91974 243.006 4.74374 243.006 7.03174C243.006 9.30374 244.75 11.1117 246.99 11.1117ZM243.774 6.71174C243.902 4.93574 245.262 3.60774 246.99 3.60774C248.718 3.60774 250.062 4.90374 250.19 6.71174H243.774ZM252.727 10.9997H253.495V5.70374C253.495 4.85574 254.455 3.73574 255.847 3.63974C256.519 3.59174 256.983 3.67174 257.607 3.89574L257.735 3.09574C257.303 2.98374 256.615 2.87174 256.023 2.91974C254.647 3.03174 253.847 3.68774 253.495 4.56774V2.99974H252.727V10.9997ZM4.81798 35.1117C6.28998 35.1117 7.56998 34.3277 8.27398 33.0797L7.55398 32.8877C6.91398 33.8957 5.98598 34.3917 4.81798 34.3917C3.04198 34.3917 1.72998 33.0637 1.60198 31.3037H8.78598C8.78598 31.2513 8.7895 31.2128 8.79323 31.172C8.79747 31.1257 8.80198 31.0763 8.80198 30.9997C8.80198 28.7117 7.04199 26.9197 4.81798 26.9197C2.57798 26.9197 0.833984 28.7437 0.833984 31.0317C0.833984 33.3037 2.57798 35.1117 4.81798 35.1117ZM1.60198 30.7117C1.72998 28.9357 3.08998 27.6077 4.81798 27.6077C6.54598 27.6077 7.88998 28.9037 8.01798 30.7117H1.60198ZM11.6434 29.8317C11.6434 28.8397 12.7634 27.7357 14.2354 27.6397C15.8994 27.5437 17.1314 28.8717 17.1314 31.0317V34.9997H17.8994V31.0317C17.8994 28.5997 16.4754 26.9197 14.6194 26.9197C13.1954 26.9197 12.2674 27.5757 11.6434 28.5517V26.9997H10.8914V34.9997H11.6434V29.8317ZM19.5654 31.0317C19.5654 33.3037 21.2134 35.1117 23.4374 35.1117C24.9894 35.1117 26.4294 34.2477 26.9254 33.0317V34.9997H27.6774V24.2797H26.9254V28.8397C26.2374 27.5597 25.1014 26.9197 23.4374 26.9197C21.2134 26.9197 19.5654 28.7277 19.5654 31.0317ZM23.6774 34.3917C21.7254 34.3917 20.3334 32.9517 20.3334 31.0317C20.3334 29.3997 21.4214 27.6397 23.6774 27.6397C25.5014 27.6397 26.9254 29.0317 26.9254 30.3437V31.7357C26.9254 33.0637 25.3094 34.3917 23.6774 34.3917ZM30.4811 34.9997V24.2797H29.7131V34.9997H30.4811ZM36.443 35.1117C37.915 35.1117 39.195 34.3277 39.899 33.0797L39.179 32.8877C38.539 33.8957 37.611 34.3917 36.443 34.3917C34.667 34.3917 33.355 33.0637 33.227 31.3037H40.411C40.411 31.2513 40.4145 31.2128 40.4182 31.172C40.4225 31.1257 40.427 31.0763 40.427 30.9997C40.427 28.7117 38.667 26.9197 36.443 26.9197C34.203 26.9197 32.459 28.7437 32.459 31.0317C32.459 33.3037 34.203 35.1117 36.443 35.1117ZM33.227 30.7117C33.355 28.9357 34.715 27.6077 36.443 27.6077C38.171 27.6077 39.515 28.9037 39.643 30.7117H33.227ZM41.7399 32.6637C42.0599 34.1197 43.1799 35.1117 44.7319 35.1117C46.3479 35.1117 47.5639 34.2157 47.5639 33.0797C47.5639 32.1997 47.0679 31.6397 45.6439 30.9197C45.3451 30.7704 45.0325 30.635 44.6017 30.4484L44.6016 30.4483L44.5079 30.4077C43.1639 29.7997 42.8599 29.5117 42.8599 28.8557C42.8599 28.1037 43.6759 27.5437 44.7639 27.5757C45.8999 27.6077 46.6039 28.2157 46.7159 29.2557L47.4039 29.1597C47.3079 27.7677 46.2359 26.8717 44.6999 26.9037C43.1799 26.9197 42.0919 27.7197 42.0919 28.8237C42.0919 29.7517 42.5719 30.2957 43.8999 30.8717C44.2199 30.9997 44.7319 31.2237 45.1799 31.4317C46.3799 32.0237 46.7639 32.4237 46.7639 33.0797C46.7639 33.8157 45.8839 34.4237 44.7319 34.4237C43.6279 34.4237 42.7479 33.6397 42.4919 32.5837L41.7399 32.6637ZM48.6461 32.6637C48.9661 34.1197 50.0861 35.1117 51.6381 35.1117C53.2541 35.1117 54.4701 34.2157 54.4701 33.0797C54.4701 32.1997 53.9741 31.6397 52.5501 30.9197C52.2514 30.7704 51.9387 30.635 51.508 30.4484L51.5078 30.4483L51.4141 30.4077C50.0701 29.7997 49.7661 29.5117 49.7661 28.8557C49.7661 28.1037 50.5821 27.5437 51.6701 27.5757C52.8061 27.6077 53.5101 28.2157 53.6221 29.2557L54.3101 29.1597C54.2141 27.7677 53.1421 26.8717 51.6061 26.9037C50.0861 26.9197 48.9981 27.7197 48.9981 28.8237C48.9981 29.7517 49.4781 30.2957 50.8061 30.8717C51.1261 30.9997 51.6381 31.2237 52.0861 31.4317C53.2861 32.0237 53.6701 32.4237 53.6701 33.0797C53.6701 33.8157 52.7901 34.4237 51.6381 34.4237C50.5341 34.4237 49.6541 33.6397 49.3981 32.5837L48.6461 32.6637ZM62.7244 34.9997H63.5404L65.8444 28.1997L68.1324 34.9997H68.9484L72.0684 26.9997H71.2524L68.5804 33.8797L66.2604 26.9997H65.4444L63.1084 33.8797L60.4364 26.9997H59.6204L62.7244 34.9997ZM77.1004 35.1117C79.3564 35.1117 81.2124 33.2877 81.2124 31.0317C81.2124 28.7757 79.3564 26.9197 77.1004 26.9197C74.8444 26.9197 72.9884 28.7757 72.9884 31.0317C72.9884 33.2877 74.8444 35.1117 77.1004 35.1117ZM77.1004 27.6077C78.9564 27.6077 80.4604 29.1757 80.4604 31.0317C80.4604 32.9357 78.9084 34.4077 77.1004 34.4077C75.2604 34.4077 73.7564 32.8877 73.7564 31.0317C73.7564 29.1117 75.2924 27.6077 77.1004 27.6077ZM82.9929 34.9997H83.7609V29.7037C83.7609 28.8557 84.7209 27.7357 86.1129 27.6397C86.7849 27.5917 87.2489 27.6717 87.8729 27.8957L88.0009 27.0957C87.5689 26.9837 86.8809 26.8717 86.2889 26.9197C84.9129 27.0317 84.1129 27.6877 83.7609 28.5677V26.9997H82.9929V34.9997ZM90.1061 34.9997V24.2797H89.3381V34.9997H90.1061ZM91.956 31.0317C91.956 33.3037 93.604 35.1117 95.828 35.1117C97.38 35.1117 98.82 34.2477 99.316 33.0317V34.9997H100.068V24.2797H99.316V28.8397C98.628 27.5597 97.492 26.9197 95.828 26.9197C93.604 26.9197 91.956 28.7277 91.956 31.0317ZM96.068 34.3917C94.116 34.3917 92.724 32.9517 92.724 31.0317C92.724 29.3997 93.812 27.6397 96.068 27.6397C97.892 27.6397 99.316 29.0317 99.316 30.3437V31.7357C99.316 33.0637 97.7 34.3917 96.068 34.3917ZM101.849 32.6637C102.169 34.1197 103.289 35.1117 104.841 35.1117C106.457 35.1117 107.673 34.2157 107.673 33.0797C107.673 32.1997 107.177 31.6397 105.753 30.9197C105.454 30.7704 105.142 30.6349 104.711 30.4483L104.617 30.4077C103.273 29.7997 102.969 29.5117 102.969 28.8557C102.969 28.1037 103.785 27.5437 104.873 27.5757C106.009 27.6077 106.713 28.2157 106.825 29.2557L107.513 29.1597C107.417 27.7677 106.345 26.8717 104.809 26.9037C103.289 26.9197 102.201 27.7197 102.201 28.8237C102.201 29.7517 102.681 30.2957 104.009 30.8717C104.329 30.9997 104.841 31.2237 105.289 31.4317C106.489 32.0237 106.873 32.4237 106.873 33.0797C106.873 33.8157 105.993 34.4237 104.841 34.4237C103.737 34.4237 102.857 33.6397 102.601 32.5837L101.849 32.6637ZM108.412 37.0477H108.956L110.492 33.4157V32.9677H109.74L108.412 37.0477ZM115.657 31.0317C115.657 33.3037 117.305 35.1117 119.529 35.1117C121.065 35.1117 122.521 34.2477 123.017 33.0317V34.9997H123.769V26.9997H123.017V28.8397C122.329 27.5597 121.209 26.9197 119.545 26.9197C117.321 26.9197 115.657 28.7277 115.657 31.0317ZM119.769 34.3917C117.801 34.3917 116.425 32.9517 116.425 31.0317C116.425 29.3997 117.529 27.6397 119.785 27.6397C121.609 27.6397 123.017 29.0317 123.017 30.3437V31.7357C123.017 33.0637 121.385 34.3917 119.769 34.3917ZM126.559 34.9997V24.2797H125.791V34.9997H126.559ZM130.105 25.3517V27.1917H128.425L128.281 27.9117H130.105V32.8077C130.105 34.3437 130.697 35.0797 132.185 35.0797C132.697 35.0797 133.289 34.9837 133.833 34.7917L133.721 34.0397C133.433 34.1677 133.017 34.2637 132.489 34.2957C131.321 34.3597 130.857 33.9917 130.857 32.4077V27.9117H133.545V27.1917H130.857V25.3517H130.105ZM139.037 35.1117C140.509 35.1117 141.789 34.3277 142.493 33.0797L141.773 32.8877C141.133 33.8957 140.205 34.3917 139.037 34.3917C137.261 34.3917 135.949 33.0637 135.821 31.3037H143.005C143.005 31.2513 143.008 31.2129 143.012 31.1722V31.172V31.1718C143.016 31.1256 143.021 31.0762 143.021 30.9997C143.021 28.7117 141.261 26.9197 139.037 26.9197C136.797 26.9197 135.053 28.7437 135.053 31.0317C135.053 33.3037 136.797 35.1117 139.037 35.1117ZM135.821 30.7117C135.949 28.9357 137.309 27.6077 139.037 27.6077C140.765 27.6077 142.109 28.9037 142.237 30.7117H135.821ZM144.774 34.9997H145.542V29.7037C145.542 28.8557 146.502 27.7357 147.894 27.6397C148.566 27.5917 149.03 27.6717 149.654 27.8957L149.782 27.0957C149.35 26.9837 148.662 26.8717 148.07 26.9197C146.694 27.0317 145.894 27.6877 145.542 28.5677V26.9997H144.774V34.9997ZM152.143 29.8317C152.143 28.8397 153.263 27.7357 154.735 27.6397C156.399 27.5437 157.631 28.8717 157.631 31.0317V34.9997H158.399V31.0317C158.399 28.5997 156.975 26.9197 155.119 26.9197C153.695 26.9197 152.767 27.5757 152.143 28.5517V26.9997H151.391V34.9997H152.143V29.8317ZM159.985 31.0317C159.985 33.3037 161.633 35.1117 163.857 35.1117C165.393 35.1117 166.849 34.2477 167.345 33.0317V34.9997H168.097V26.9997H167.345V28.8397C166.657 27.5597 165.537 26.9197 163.873 26.9197C161.649 26.9197 159.985 28.7277 159.985 31.0317ZM164.097 34.3917C162.129 34.3917 160.753 32.9517 160.753 31.0317C160.753 29.3997 161.857 27.6397 164.113 27.6397C165.937 27.6397 167.345 29.0317 167.345 30.3437V31.7357C167.345 33.0637 165.713 34.3917 164.097 34.3917ZM171.511 25.3517V27.1917H169.831L169.687 27.9117H171.511V32.8077C171.511 34.3437 172.103 35.0797 173.591 35.0797C174.103 35.0797 174.695 34.9837 175.239 34.7917L175.127 34.0397C174.839 34.1677 174.423 34.2637 173.895 34.2957C172.727 34.3597 172.263 33.9917 172.263 32.4077V27.9117H174.951V27.1917H172.263V25.3517H171.511ZM176.789 24.5997C176.789 24.8877 176.981 25.0637 177.253 25.0637C177.541 25.0637 177.717 24.8877 177.717 24.5997C177.717 24.3117 177.541 24.1357 177.253 24.1357C176.981 24.1357 176.789 24.3117 176.789 24.5997ZM177.621 34.9997V26.9997H176.853V34.9997H177.621ZM186.047 26.9997L183.039 34.0557L179.919 26.9997H179.103L182.639 34.9997H183.455L186.863 26.9997H186.047ZM191.787 35.1117C193.259 35.1117 194.539 34.3277 195.243 33.0797L194.523 32.8877C193.883 33.8957 192.955 34.3917 191.787 34.3917C190.011 34.3917 188.699 33.0637 188.571 31.3037H195.755C195.755 31.2513 195.758 31.2128 195.762 31.172V31.1718C195.766 31.1256 195.771 31.0762 195.771 30.9997C195.771 28.7117 194.011 26.9197 191.787 26.9197C189.547 26.9197 187.803 28.7437 187.803 31.0317C187.803 33.3037 189.547 35.1117 191.787 35.1117ZM188.571 30.7117C188.699 28.9357 190.059 27.6077 191.787 27.6077C193.515 27.6077 194.859 28.9037 194.987 30.7117H188.571ZM201.524 34.9997H202.292V29.7037C202.292 28.8557 203.252 27.7357 204.644 27.6397C205.316 27.5917 205.78 27.6717 206.404 27.8957L206.532 27.0957C206.1 26.9837 205.412 26.8717 204.82 26.9197C203.444 27.0317 202.644 27.6877 202.292 28.5677V26.9997H201.524V34.9997ZM211.38 35.1117C212.852 35.1117 214.132 34.3277 214.836 33.0797L214.116 32.8877C213.476 33.8957 212.548 34.3917 211.38 34.3917C209.604 34.3917 208.292 33.0637 208.164 31.3037H215.348C215.348 31.2778 215.349 31.2553 215.351 31.2343C215.352 31.2127 215.354 31.1927 215.356 31.172C215.36 31.1257 215.364 31.0763 215.364 30.9997C215.364 28.7117 213.604 26.9197 211.38 26.9197C209.14 26.9197 207.396 28.7437 207.396 31.0317C207.396 33.3037 209.14 35.1117 211.38 35.1117ZM208.164 30.7117C208.292 28.9357 209.652 27.6077 211.38 27.6077C213.108 27.6077 214.452 28.9037 214.58 30.7117H208.164ZM216.735 31.0317C216.735 33.3037 218.383 35.1117 220.607 35.1117C222.143 35.1117 223.599 34.2477 224.095 33.0317V34.9997H224.847V26.9997H224.095V28.8397C223.407 27.5597 222.287 26.9197 220.623 26.9197C218.399 26.9197 216.735 28.7277 216.735 31.0317ZM220.847 34.3917C218.879 34.3917 217.503 32.9517 217.503 31.0317C217.503 29.3997 218.607 27.6397 220.863 27.6397C222.687 27.6397 224.095 29.0317 224.095 30.3437V31.7357C224.095 33.0637 222.463 34.3917 220.847 34.3917ZM227.637 34.9997V24.2797H226.869V34.9997H227.637ZM229.695 24.5997C229.695 24.8877 229.887 25.0637 230.159 25.0637C230.447 25.0637 230.623 24.8877 230.623 24.5997C230.623 24.3117 230.447 24.1357 230.159 24.1357C229.887 24.1357 229.695 24.3117 229.695 24.5997ZM230.527 34.9997V26.9997H229.759V34.9997H230.527ZM234.089 25.3517V27.1917H232.409L232.265 27.9117H234.089V32.8077C234.089 34.3437 234.681 35.0797 236.169 35.0797C236.681 35.0797 237.273 34.9837 237.817 34.7917L237.705 34.0397C237.417 34.1677 237.001 34.2637 236.473 34.2957C235.305 34.3597 234.841 33.9917 234.841 32.4077V27.9117H237.529V27.1917H234.841V25.3517H234.089ZM239.367 24.5997C239.367 24.8877 239.559 25.0637 239.831 25.0637C240.119 25.0637 240.295 24.8877 240.295 24.5997C240.295 24.3117 240.119 24.1357 239.831 24.1357C239.559 24.1357 239.367 24.3117 239.367 24.5997ZM240.199 34.9997V26.9997H239.431V34.9997H240.199ZM246.177 35.1117C247.649 35.1117 248.929 34.3277 249.633 33.0797L248.913 32.8877C248.273 33.8957 247.345 34.3917 246.177 34.3917C244.401 34.3917 243.089 33.0637 242.961 31.3037H250.145C250.145 31.2513 250.149 31.2129 250.153 31.1722V31.172V31.1718C250.157 31.1256 250.161 31.0762 250.161 30.9997C250.161 28.7117 248.401 26.9197 246.177 26.9197C243.937 26.9197 242.193 28.7437 242.193 31.0317C242.193 33.3037 243.937 35.1117 246.177 35.1117ZM242.961 30.7117C243.089 28.9357 244.449 27.6077 246.177 27.6077C247.905 27.6077 249.249 28.9037 249.377 30.7117H242.961ZM251.474 32.6637C251.794 34.1197 252.914 35.1117 254.466 35.1117C256.082 35.1117 257.298 34.2157 257.298 33.0797C257.298 32.1997 256.802 31.6397 255.378 30.9197C255.079 30.7704 254.767 30.635 254.336 30.4484L254.242 30.4077C252.898 29.7997 252.594 29.5117 252.594 28.8557C252.594 28.1037 253.41 27.5437 254.498 27.5757C255.634 27.6077 256.338 28.2157 256.45 29.2557L257.138 29.1597C257.042 27.7677 255.97 26.8717 254.434 26.9037C252.914 26.9197 251.826 27.7197 251.826 28.8237C251.826 29.7517 252.306 30.2957 253.634 30.8717C253.954 30.9997 254.466 31.2237 254.914 31.4317C256.114 32.0237 256.498 32.4237 256.498 33.0797C256.498 33.8157 255.618 34.4237 254.466 34.4237C253.362 34.4237 252.482 33.6397 252.226 32.5837L251.474 32.6637ZM85.2979 55.0317C85.2979 57.3037 86.9459 59.1117 89.1699 59.1117C90.7059 59.1117 92.1619 58.2477 92.6579 57.0317V58.9997H93.4099V50.9997H92.6579V52.8397C91.9699 51.5597 90.8499 50.9197 89.1859 50.9197C86.9619 50.9197 85.2979 52.7277 85.2979 55.0317ZM89.4099 58.3917C87.4419 58.3917 86.0659 56.9517 86.0659 55.0317C86.0659 53.3997 87.1699 51.6397 89.4259 51.6397C91.2499 51.6397 92.6579 53.0317 92.6579 54.3437V55.7357C92.6579 57.0637 91.0259 58.3917 89.4099 58.3917ZM96.4559 53.8317C96.4559 52.8397 97.5759 51.7357 99.0479 51.6397C100.712 51.5437 101.944 52.8717 101.944 55.0317V58.9997H102.712V55.0317C102.712 52.5997 101.288 50.9197 99.4319 50.9197C98.0079 50.9197 97.0799 51.5757 96.4559 52.5517V50.9997H95.7039V58.9997H96.4559V53.8317ZM104.378 55.0317C104.378 57.3037 106.026 59.1117 108.25 59.1117C109.802 59.1117 111.242 58.2477 111.738 57.0317V58.9997H112.49V48.2797H111.738V52.8397C111.05 51.5597 109.914 50.9197 108.25 50.9197C106.026 50.9197 104.378 52.7277 104.378 55.0317ZM108.49 58.3917C106.538 58.3917 105.146 56.9517 105.146 55.0317C105.146 53.3997 106.234 51.6397 108.49 51.6397C110.314 51.6397 111.738 53.0317 111.738 54.3437V55.7357C111.738 57.0637 110.122 58.3917 108.49 58.3917ZM126.638 54.9677C126.638 52.7277 124.958 50.8877 122.798 50.8877C121.214 50.8877 119.95 51.6237 119.294 52.9197V50.9997H118.526V61.3997H119.294V57.1117C119.95 58.3437 121.262 59.0797 122.798 59.0797C125.006 59.0797 126.638 57.2717 126.638 54.9677ZM119.294 54.5197C119.294 52.9357 120.766 51.6077 122.558 51.6077C124.462 51.6077 125.886 53.0477 125.886 54.9677C125.886 56.9517 124.51 58.3597 122.558 58.3437C120.926 58.3437 119.294 56.9997 119.294 55.6237V54.5197ZM128.126 55.0317C128.126 57.3037 129.774 59.1117 131.998 59.1117C133.534 59.1117 134.99 58.2477 135.486 57.0317V58.9997H136.238V50.9997H135.486V52.8397C134.798 51.5597 133.678 50.9197 132.014 50.9197C129.79 50.9197 128.126 52.7277 128.126 55.0317ZM132.238 58.3917C130.27 58.3917 128.894 56.9517 128.894 55.0317C128.894 53.3997 129.998 51.6397 132.254 51.6397C134.078 51.6397 135.486 53.0317 135.486 54.3437V55.7357C135.486 57.0637 133.854 58.3917 132.238 58.3917ZM138.196 58.9997H138.964V53.7037C138.964 52.8557 139.924 51.7357 141.316 51.6397C141.988 51.5917 142.452 51.6717 143.076 51.8957L143.204 51.0957C142.772 50.9837 142.084 50.8717 141.492 50.9197C140.116 51.0317 139.316 51.6877 138.964 52.5677V50.9997H138.196V58.9997ZM143.86 55.0317C143.86 57.3037 145.508 59.1117 147.732 59.1117C149.268 59.1117 150.724 58.2477 151.22 57.0317V58.9997H151.972V50.9997H151.22V52.8397C150.532 51.5597 149.412 50.9197 147.748 50.9197C145.524 50.9197 143.86 52.7277 143.86 55.0317ZM147.972 58.3917C146.004 58.3917 144.628 56.9517 144.628 55.0317C144.628 53.3997 145.732 51.6397 147.988 51.6397C149.812 51.6397 151.22 53.0317 151.22 54.3437V55.7357C151.22 57.0637 149.588 58.3917 147.972 58.3917ZM154.762 58.9997V48.2797H153.994V58.9997H154.762ZM157.684 58.9997V48.2797H156.916V58.9997H157.684ZM163.646 59.1117C165.118 59.1117 166.398 58.3277 167.102 57.0797L166.382 56.8877C165.742 57.8957 164.814 58.3917 163.646 58.3917C161.87 58.3917 160.558 57.0637 160.43 55.3037H167.614C167.614 55.2513 167.618 55.2129 167.621 55.1722V55.172V55.1718C167.626 55.1256 167.63 55.0762 167.63 54.9997C167.63 52.7117 165.87 50.9197 163.646 50.9197C161.406 50.9197 159.662 52.7437 159.662 55.0317C159.662 57.3037 161.406 59.1117 163.646 59.1117ZM160.43 54.7117C160.558 52.9357 161.918 51.6077 163.646 51.6077C165.374 51.6077 166.718 52.9037 166.846 54.7117H160.43ZM170.215 58.9997V48.2797H169.447V58.9997H170.215ZM176.065 55.0317C176.065 57.3037 177.713 59.1117 179.937 59.1117C181.489 59.1117 182.929 58.2477 183.425 57.0317V58.9997H184.177V48.2797H183.425V52.8397C182.737 51.5597 181.601 50.9197 179.937 50.9197C177.713 50.9197 176.065 52.7277 176.065 55.0317ZM180.177 58.3917C178.225 58.3917 176.833 56.9517 176.833 55.0317C176.833 53.3997 177.921 51.6397 180.177 51.6397C182.001 51.6397 183.425 53.0317 183.425 54.3437V55.7357C183.425 57.0637 181.809 58.3917 180.177 58.3917ZM186.117 48.5997C186.117 48.8877 186.309 49.0637 186.581 49.0637C186.869 49.0637 187.045 48.8877 187.045 48.5997C187.045 48.3117 186.869 48.1357 186.581 48.1357C186.309 48.1357 186.117 48.3117 186.117 48.5997ZM186.949 50.9997H186.181V58.9997H186.949V50.9997ZM189.839 58.9997V53.6877C189.839 52.7917 191.007 51.6557 192.511 51.6237C194.047 51.5917 195.023 52.8397 195.023 55.0317V58.9997H195.791V55.0317C195.791 54.5037 195.743 54.0237 195.631 53.5757C195.967 52.6157 197.023 51.7037 197.983 51.6397C199.663 51.5277 200.751 52.8557 200.751 55.0317V58.9997H201.519V55.0317C201.519 52.5517 200.271 50.9197 198.367 50.9197C197.119 50.9197 195.919 51.7197 195.423 52.8717C194.943 51.6557 194.031 50.9197 192.783 50.9197C191.247 50.9197 190.399 51.5597 189.839 52.4877V50.9997H189.087V58.9997H189.839ZM207.318 59.1117C208.79 59.1117 210.07 58.3277 210.774 57.0797L210.054 56.8877C209.414 57.8957 208.486 58.3917 207.318 58.3917C205.542 58.3917 204.23 57.0637 204.102 55.3037H211.286C211.286 55.2513 211.29 55.2128 211.293 55.172V55.1718C211.297 55.1256 211.302 55.0762 211.302 54.9997C211.302 52.7117 209.542 50.9197 207.318 50.9197C205.078 50.9197 203.334 52.7437 203.334 55.0317C203.334 57.3037 205.078 59.1117 207.318 59.1117ZM204.102 54.7117C204.23 52.9357 205.59 51.6077 207.318 51.6077C209.046 51.6077 210.39 52.9037 210.518 54.7117H204.102ZM214.143 53.8317C214.143 52.8397 215.263 51.7357 216.735 51.6397C218.399 51.5437 219.631 52.8717 219.631 55.0317V58.9997H220.399V55.0317C220.399 52.5997 218.975 50.9197 217.119 50.9197C215.695 50.9197 214.767 51.5757 214.143 52.5517V50.9997H213.391V58.9997H214.143V53.8317ZM222.177 56.6637C222.497 58.1197 223.617 59.1117 225.169 59.1117C226.785 59.1117 228.001 58.2157 228.001 57.0797C228.001 56.1997 227.505 55.6397 226.081 54.9197C225.783 54.7704 225.47 54.635 225.039 54.4484L224.945 54.4077C223.601 53.7997 223.297 53.5117 223.297 52.8557C223.297 52.1037 224.113 51.5437 225.201 51.5757C226.337 51.6077 227.041 52.2157 227.153 53.2557L227.841 53.1597C227.745 51.7677 226.673 50.8717 225.137 50.9037C223.617 50.9197 222.529 51.7197 222.529 52.8237C222.529 53.7517 223.009 54.2957 224.337 54.8717C224.657 54.9997 225.169 55.2237 225.617 55.4317C226.817 56.0237 227.201 56.4237 227.201 57.0797C227.201 57.8157 226.321 58.4237 225.169 58.4237C224.065 58.4237 223.185 57.6397 222.929 56.5837L222.177 56.6637ZM229.601 48.5997C229.601 48.8877 229.793 49.0637 230.065 49.0637C230.353 49.0637 230.529 48.8877 230.529 48.5997C230.529 48.3117 230.353 48.1357 230.065 48.1357C229.793 48.1357 229.601 48.3117 229.601 48.5997ZM230.433 50.9997H229.665V58.9997H230.433V50.9997ZM236.46 59.1117C238.716 59.1117 240.572 57.2877 240.572 55.0317C240.572 52.7757 238.716 50.9197 236.46 50.9197C234.204 50.9197 232.348 52.7757 232.348 55.0317C232.348 57.2877 234.204 59.1117 236.46 59.1117ZM236.46 51.6077C238.316 51.6077 239.82 53.1757 239.82 55.0317C239.82 56.9357 238.268 58.4077 236.46 58.4077C234.62 58.4077 233.116 56.8877 233.116 55.0317C233.116 53.1117 234.652 51.6077 236.46 51.6077ZM243.44 53.8317C243.44 52.8397 244.56 51.7357 246.032 51.6397C247.696 51.5437 248.928 52.8717 248.928 55.0317V58.9997H249.696V55.0317C249.696 52.5997 248.272 50.9197 246.416 50.9197C244.992 50.9197 244.064 51.5757 243.44 52.5517V50.9997H242.688V58.9997H243.44V53.8317ZM251.474 56.6637C251.794 58.1197 252.914 59.1117 254.466 59.1117C256.082 59.1117 257.298 58.2157 257.298 57.0797C257.298 56.1997 256.802 55.6397 255.378 54.9197C255.079 54.7704 254.767 54.635 254.336 54.4484L254.242 54.4077C252.898 53.7997 252.594 53.5117 252.594 52.8557C252.594 52.1037 253.41 51.5437 254.498 51.5757C255.634 51.6077 256.338 52.2157 256.45 53.2557L257.138 53.1597C257.042 51.7677 255.97 50.8717 254.434 50.9037C252.914 50.9197 251.826 51.7197 251.826 52.8237C251.826 53.7517 252.306 54.2957 253.634 54.8717C253.954 54.9997 254.466 55.2237 254.914 55.4317C256.114 56.0237 256.498 56.4237 256.498 57.0797C256.498 57.8157 255.618 58.4237 254.466 58.4237C253.362 58.4237 252.482 57.6397 252.226 56.5837L251.474 56.6637ZM164.208 75.9997H163.001L163.854 76.8533L170.854 83.8533L171.001 83.9997H171.208H177.47C177.761 85.8612 179.372 87.2852 181.316 87.2852C183.259 87.2852 184.87 85.8612 185.161 83.9997H353.47C353.756 85.8268 355.313 87.2324 357.208 87.2838V94.4997V94.7068L357.354 94.8533L387.458 124.957V128.024C385.513 128.241 384.001 129.89 384.001 131.892C384.001 133.895 385.513 135.544 387.458 135.761V155V173.024C385.513 173.241 384.001 174.89 384.001 176.892C384.001 179.042 385.744 180.785 387.894 180.785C390.044 180.785 391.787 179.042 391.787 176.892C391.787 174.934 390.341 173.314 388.458 173.04V155V135.745C390.34 135.471 391.786 133.851 391.786 131.892C391.786 129.934 390.34 128.314 388.458 128.04V124.75V124.543L388.311 124.396L375.708 111.793V101V100.793L375.561 100.646L360.519 85.6041C360.954 84.976 361.208 84.2139 361.208 83.3925C361.208 81.2426 359.465 79.4997 357.315 79.4997C355.298 79.4997 353.639 81.0343 353.442 82.9997H185.189C184.992 81.0343 183.333 79.4997 181.316 79.4997C179.298 79.4997 177.639 81.0343 177.442 82.9997H171.415L165.415 76.9997H337.208H353.708V75.9997H337.208H164.208ZM359.849 86.348L374.708 101.207V110.793L358.208 94.2926V87.1824C358.824 87.0378 359.384 86.7468 359.849 86.348ZM330.694 5.00042L330.54 5.51492L314.42 59.455L314.335 59.7404H314.037H298.537H298L298.154 59.2259L314.274 5.28592L314.359 5.00042H314.657H330.157H330.694ZM314.955 5.80042L299.074 58.9404H313.739L329.62 5.80042H314.955ZM331.605 36.8064H332.005H346.885H347.285V37.2064C347.285 37.6665 347.391 38.008 347.636 38.2872C347.891 38.5777 348.337 38.8472 349.111 39.0694C350.669 39.5167 353.358 39.7204 357.859 39.7204C362.025 39.7204 364.413 39.6257 365.759 39.3415C366.432 39.1994 366.778 39.0222 366.959 38.8426C367.12 38.6824 367.193 38.477 367.193 38.1364C367.193 37.7184 367.113 37.5186 366.961 37.3795C366.781 37.2147 366.427 37.0651 365.702 36.9505C364.591 36.7752 362.826 36.7078 360.025 36.6007C359.187 36.5687 358.256 36.5332 357.222 36.4901C348.684 36.1498 342.457 35.6552 338.367 34.0286C336.307 33.2095 334.759 32.0924 333.731 30.5393C332.704 28.9879 332.225 27.0435 332.225 24.6204C332.225 21.893 332.965 19.7032 334.316 17.9646C335.664 16.2313 337.597 14.9763 339.936 14.0716C344.6 12.2674 350.976 11.8204 357.859 11.8204C364.739 11.8204 370.659 12.2663 374.867 14.0932C376.981 15.0113 378.681 16.2853 379.849 18.0409C381.018 19.7969 381.633 22.0019 381.633 24.7444V25.1444H381.233H366.353H365.953V24.7444C365.953 24.3448 365.835 24.0949 365.606 23.9052C365.352 23.6942 364.919 23.523 364.216 23.4027C362.809 23.1619 360.575 23.1604 357.239 23.1604C353.442 23.1604 351.041 23.1612 349.583 23.3358C348.848 23.4238 348.416 23.5503 348.174 23.7014C348.061 23.7719 348 23.8413 347.964 23.9066C347.929 23.9725 347.905 24.0598 347.905 24.1864C347.905 24.4944 347.975 24.6405 348.135 24.7608C348.341 24.916 348.741 25.0589 349.519 25.1783C350.801 25.3751 352.896 25.4825 356.293 25.6568C356.975 25.6917 357.709 25.7293 358.499 25.7709C365.796 26.1419 371.862 26.5446 376.1 28.0965C378.231 28.8766 379.933 29.958 381.1 31.5003C382.271 33.0464 382.873 35.0164 382.873 37.5164C382.873 40.412 382.239 42.7322 381.038 44.5752C379.837 46.4184 378.088 47.7516 375.915 48.7092C371.59 50.6148 365.513 51.0604 358.479 51.0604C351.441 51.0604 344.754 50.6135 339.818 48.6768C337.343 47.7056 335.284 46.351 333.845 44.4689C332.402 42.5822 331.605 40.1957 331.605 37.2064V36.8064ZM358.459 26.5699L358.458 26.5698C357.675 26.5286 356.945 26.4912 356.265 26.4564C352.871 26.2826 350.723 26.1726 349.397 25.969C348.609 25.8481 348.033 25.6849 347.654 25.4003C347.229 25.0808 347.105 24.6534 347.105 24.1864C347.105 23.9565 347.149 23.7318 347.261 23.5248C347.374 23.3172 347.542 23.1526 347.751 23.0226C348.151 22.7726 348.734 22.6317 349.488 22.5415C350.999 22.3604 353.45 22.3604 357.19 22.3604H357.239H357.296C360.564 22.3604 362.868 22.3604 364.351 22.6141C365.097 22.7418 365.699 22.9426 366.117 23.2896C366.457 23.5716 366.649 23.9273 366.721 24.3444H380.828C380.771 21.9149 380.192 19.9997 379.183 18.4841C378.12 16.8859 376.557 15.6993 374.548 14.8271C370.51 13.0735 364.743 12.6204 357.859 12.6204C350.978 12.6204 344.737 13.0724 340.225 14.8177C337.976 15.6877 336.181 16.8702 334.948 18.4557C333.719 20.0361 333.025 22.0468 333.025 24.6204C333.025 26.9403 333.483 28.7159 334.398 30.0978C335.312 31.4781 336.708 32.5079 338.663 33.2852C342.601 34.8516 348.681 35.349 357.255 35.6907H357.256C358.266 35.7329 359.183 35.7678 360.014 35.7996C362.833 35.9071 364.666 35.9771 365.826 36.1603C366.573 36.2782 367.134 36.4541 367.501 36.7892C367.895 37.15 367.993 37.6244 367.993 38.1364C367.993 38.6018 367.888 39.0474 367.522 39.4103C367.176 39.7539 366.646 39.9719 365.924 40.1243C364.48 40.4291 362.001 40.5204 357.859 40.5204C353.37 40.5204 350.572 40.3211 348.89 39.8384C348.045 39.5956 347.433 39.2683 347.035 38.8149C346.72 38.4563 346.564 38.0473 346.509 37.6064H332.41C332.478 40.2538 333.221 42.3365 334.48 43.983C335.806 45.7163 337.726 46.9967 340.11 47.932C344.892 49.8083 351.443 50.2604 358.479 50.2604C365.519 50.2604 371.439 49.807 375.592 47.9771C377.658 47.067 379.27 45.8233 380.368 44.1383C381.466 42.4531 382.073 40.2938 382.073 37.5164C382.073 35.1494 381.505 33.3606 380.463 31.9831C379.417 30.6017 377.865 29.5945 375.825 28.8478C371.725 27.3462 365.794 26.9429 358.459 26.5699ZM398.812 18.9009V17.9244V13.2404H384.732V65.1404H398.812V44.9564V43.9799L399.497 44.6758C403.306 48.5454 408.894 50.2604 414.588 50.2604C419.344 50.2604 424.331 49.2157 428.119 46.3576C431.887 43.5141 434.524 38.8353 434.524 31.4404C434.524 24.0455 431.887 19.3667 428.119 16.5232C424.331 13.6652 419.344 12.6204 414.588 12.6204C408.894 12.6204 403.306 14.3354 399.497 18.205L398.812 18.9009ZM399.612 12.4404V12.8404V16.9862C403.578 13.3873 409.075 11.8204 414.588 11.8204C419.442 11.8204 424.623 12.8837 428.601 15.8846C432.597 18.9001 435.324 23.8313 435.324 31.4404C435.324 39.0495 432.597 43.9807 428.601 46.9962C424.623 49.9972 419.442 51.0604 414.588 51.0604C409.075 51.0604 403.578 49.4936 399.612 45.8947V65.5404V65.9404H399.212H384.332H383.932V65.5404V12.8404V12.4404H384.332H399.212H399.612ZM402.132 36.5499C403.808 37.5159 406.318 37.8604 409.628 37.8604C412.938 37.8604 415.448 37.5159 417.124 36.5499C417.951 36.0732 418.573 35.4456 418.993 34.6255C419.415 33.8012 419.644 32.7594 419.644 31.4404C419.644 30.1214 419.415 29.0796 418.993 28.2553C418.573 27.4352 417.951 26.8076 417.124 26.331C415.448 25.3649 412.938 25.0204 409.628 25.0204C406.318 25.0204 403.808 25.3649 402.132 26.331C401.305 26.8076 400.682 27.4352 400.263 28.2553C399.841 29.0796 399.612 30.1214 399.612 31.4404C399.612 32.7594 399.841 33.8012 400.263 34.6255C400.682 35.4456 401.305 36.0732 402.132 36.5499ZM399.55 34.99C399.056 34.0241 398.812 32.8494 398.812 31.4404C398.812 30.0314 399.056 28.8567 399.55 27.8908C400.047 26.9206 400.785 26.1842 401.732 25.6379C403.606 24.5579 406.304 24.2204 409.628 24.2204C412.952 24.2204 415.65 24.5579 417.523 25.6379C418.471 26.1842 419.209 26.9206 419.705 27.8908C420.2 28.8567 420.444 30.0314 420.444 31.4404C420.444 32.8494 420.2 34.0241 419.705 34.99C419.209 35.9602 418.471 36.6966 417.523 37.243C415.65 38.3229 412.952 38.6604 409.628 38.6604C406.304 38.6604 403.606 38.3229 401.732 37.243C400.785 36.6966 400.047 35.9602 399.55 34.99ZM438.027 15.7609L438.454 15.622C445.929 13.1928 454.031 11.8204 460.96 11.8204C468.618 11.8204 474.706 13.1251 478.901 16.2794C483.12 19.4515 485.353 24.4379 485.416 31.6229V31.6264V50.0404V50.4404H485.016H470.136H469.736V50.0404V46.2875C464.035 50.1923 457.725 51.0604 451.474 51.0604C447.19 51.0604 443.124 50.2959 440.115 48.4762C437.082 46.6419 435.14 43.7422 435.14 39.5624C435.14 37.0616 435.863 35.0031 437.135 33.3314C438.402 31.665 440.198 30.4041 442.314 29.4629C446.536 27.5844 452.106 26.9484 457.55 26.9484C462.51 26.9484 466.372 27.563 469.706 28.6951C469.623 27.9426 469.375 27.3643 469.011 26.9114C468.554 26.3442 467.886 25.9374 467.033 25.6506C465.308 25.0707 462.959 25.0204 460.464 25.0204C455.717 25.0204 450.29 25.4517 443.499 26.9332L443.185 27.0018L443.05 26.7092L438.214 16.1692L438.027 15.7609ZM470.536 29.8415L469.999 29.6463C466.642 28.4255 462.722 27.7484 457.55 27.7484C452.144 27.7484 446.709 28.3834 442.639 30.1939C440.608 31.0972 438.936 32.2853 437.772 33.8157C436.612 35.3409 435.94 37.2272 435.94 39.5624C435.94 43.4426 437.718 46.0919 440.529 47.7916C443.363 49.5059 447.264 50.2604 451.474 50.2604C457.886 50.2604 464.234 49.3346 469.9 45.1915L470.536 44.7264V45.5144V49.6404H484.616V31.6299C484.555 24.6169 482.386 19.9004 478.421 16.9189C474.432 13.9198 468.555 12.6204 460.96 12.6204C454.256 12.6204 446.415 13.9244 439.13 16.2451L443.644 26.0834C450.347 24.6438 455.737 24.2204 460.464 24.2204C462.929 24.2204 465.416 24.2631 467.288 24.8923C468.232 25.2099 469.052 25.6866 469.634 26.4098C470.22 27.1382 470.536 28.0801 470.536 29.2704V29.8415ZM470.536 38.151L470.295 38.2554C466.525 39.889 461.015 41.1404 455.938 41.1404C454.06 41.1404 452.607 41.067 451.623 40.7051C451.117 40.5194 450.705 40.2475 450.423 39.8451C450.141 39.4427 450.02 38.9522 450.02 38.3844C450.02 37.7005 450.241 37.1153 450.709 36.6437C451.164 36.1851 451.826 35.8617 452.66 35.6277C454.324 35.1615 456.84 35.0084 460.278 35.0084C464.57 35.0084 467.833 35.3188 470.238 35.9516L470.536 36.0301V36.3384V37.8884V38.151ZM469.736 37.6243V36.6496C467.455 36.0923 464.361 35.8084 460.278 35.8084C456.834 35.8084 454.421 35.9653 452.876 36.3981C452.107 36.6137 451.594 36.887 451.276 37.2073C450.971 37.5146 450.82 37.8904 450.82 38.3844C450.82 38.8396 450.916 39.1551 451.078 39.3862C451.24 39.6174 451.497 39.8067 451.899 39.9542C452.728 40.2588 454.034 40.3404 455.938 40.3404C460.797 40.3404 466.073 39.1645 469.736 37.6243ZM537.191 33.8304L537.144 34.2725C536.512 40.245 533.83 44.4677 529.415 47.1805C525.023 49.879 518.954 51.0604 511.574 51.0604C503.636 51.0604 497.213 49.6931 492.766 46.5381C488.293 43.3646 485.878 38.4257 485.878 31.4404C485.878 24.4551 488.293 19.5162 492.766 16.3427C497.213 13.1877 503.636 11.8204 511.574 11.8204C518.954 11.8204 525.023 13.0018 529.415 15.7003C533.83 18.4131 536.512 22.6358 537.144 28.6083L537.191 29.0504H536.746H521.556H521.278L521.182 28.7901C520.641 27.34 519.581 26.4061 517.986 25.8255C516.372 25.2379 514.228 25.0204 511.574 25.0204C508.264 25.0204 505.754 25.3649 504.078 26.331C503.251 26.8076 502.629 27.4352 502.209 28.2553C501.787 29.0796 501.558 30.1214 501.558 31.4404C501.558 32.7594 501.787 33.8012 502.209 34.6255C502.629 35.4456 503.251 36.0732 504.078 36.5499C505.754 37.5159 508.264 37.8604 511.574 37.8604C514.228 37.8604 516.372 37.6429 517.986 37.0553C519.581 36.4747 520.641 35.5408 521.182 34.0908L521.278 33.8304H521.556H536.746H537.191ZM493.229 45.8857C497.478 48.8997 503.702 50.2604 511.574 50.2604C518.889 50.2604 524.786 49.0858 528.996 46.4988C533.075 43.9926 535.608 40.1393 536.298 34.6304H521.827C521.161 36.1926 519.938 37.1964 518.26 37.807C516.51 38.4439 514.252 38.6604 511.574 38.6604C508.251 38.6604 505.552 38.3229 503.679 37.243C502.731 36.6966 501.993 35.9602 501.497 34.9901C501.002 34.0241 500.758 32.8494 500.758 31.4404C500.758 30.0314 501.002 28.8567 501.497 27.8908C501.993 26.9206 502.731 26.1842 503.679 25.6379C505.552 24.5579 508.251 24.2204 511.574 24.2204C514.252 24.2204 516.51 24.4369 518.26 25.0738C519.938 25.6844 521.161 26.6882 521.827 28.2504H536.298C535.608 22.7415 533.075 18.8882 528.996 16.382C524.786 13.795 518.889 12.6204 511.574 12.6204C503.702 12.6204 497.478 13.9811 493.229 16.9951C489.007 19.9906 486.678 24.6617 486.678 31.4404C486.678 38.2191 489.007 42.8902 493.229 45.8857ZM552.631 33.5204H553.175H588.051C587.971 25.7074 585.548 20.5379 581.365 17.295C577.09 13.9808 570.904 12.6204 563.281 12.6204C555.723 12.6204 549.494 13.9799 545.166 16.9971C540.862 19.9967 538.385 24.6706 538.385 31.4404C538.385 38.2108 540.863 42.886 545.091 45.8857C549.343 48.9019 555.415 50.2604 562.661 50.2604C570.286 50.2604 576.033 49.0857 580.092 46.7263C583.997 44.4565 586.37 41.0728 587.345 36.4904H573.402C571.896 37.6734 570.568 38.378 568.942 38.7804C567.293 39.1886 565.359 39.2804 562.661 39.2804C560.59 39.2804 558.466 39.0306 556.689 38.255C554.898 37.4734 553.454 36.1538 552.794 34.0397L552.631 33.5204ZM588.853 34.3204H588.453H553.744C554.383 35.8755 555.547 36.8838 557.009 37.5218C558.642 38.2343 560.64 38.4804 562.661 38.4804C565.358 38.4804 567.205 38.3863 568.75 38.0039C570.278 37.6256 571.529 36.9598 573.014 35.7774L573.124 35.6904H573.263H587.833H588.316L588.226 36.1646C587.277 41.1987 584.748 44.9449 580.494 47.418C576.26 49.8791 570.35 51.0604 562.661 51.0604C555.337 51.0604 549.072 49.691 544.628 46.5381C540.161 43.3688 537.585 38.434 537.585 31.4404C537.585 24.4463 540.161 19.5101 544.708 16.3408C549.23 13.1889 555.65 11.8204 563.281 11.8204C570.973 11.8204 577.373 13.188 581.855 16.6628C586.359 20.1539 588.853 25.7134 588.853 33.9204V34.3204ZM573.229 26.8804H572.581H553.857H553.21L553.5 26.3015C554.395 24.5101 555.844 23.5196 557.559 22.9831C559.257 22.452 561.232 22.3604 563.219 22.3604C565.206 22.3604 567.182 22.452 568.88 22.9831C570.595 23.5196 572.043 24.5101 572.939 26.3015L573.229 26.8804ZM568.641 23.7467C567.069 23.2549 565.2 23.1604 563.219 23.1604C561.238 23.1604 559.37 23.2549 557.798 23.7467C556.447 24.1693 555.327 24.8808 554.546 26.0804H571.893C571.112 24.8808 569.992 24.1693 568.641 23.7467Z" fill="white"/>
</svg>
