<svg width="487" height="184" viewBox="0 0 487 184" fill="none" xmlns="http://www.w3.org/2000/svg">
<path fill-rule="evenodd" clip-rule="evenodd" d="M35.7748 0.799805H36.1748H49.6148H50.0148V1.1998V10.1598V10.5598H49.6148H36.1748H35.7748V10.1598V1.1998V0.799805ZM36.5748 1.5998V9.7598H49.2148V1.5998H36.5748ZM21.1762 2.92749V3.4398V11.9998H34.4962H34.8962V12.3998V23.5998V23.9998H34.4962H21.1762V30.5438C21.1762 32.1022 21.4795 33.1744 22.1662 33.8672C22.8532 34.5602 24.0099 34.9598 25.9282 34.9598H25.9316C28.9446 34.9598 30.6033 34.9598 34.4388 34.4039L34.8962 34.3377V34.7998V45.7198V46.0557L34.5653 46.1138C31.3432 46.6791 27.3426 46.9598 22.9042 46.9598C17.6701 46.9598 13.6824 46.1606 10.9939 44.3877C8.27232 42.5929 6.93616 39.8372 6.93616 36.0878V23.9998H0.560156H0.160156V23.5998V12.3998V11.9998H0.560156H6.93616V6.7998V6.48749L7.23914 6.41174L20.6791 3.05175L21.1762 2.92749ZM7.73616 7.11211V12.3998V12.7998H7.33616H0.960156V23.1998H7.33616H7.73616V23.5998V36.0878C7.73616 39.6184 8.976 42.0987 11.4344 43.7199C13.926 45.363 17.7222 46.1598 22.9042 46.1598C27.1612 46.1598 30.9912 45.8995 34.0962 45.3824V35.2608C30.524 35.7596 28.8394 35.7598 25.9282 35.7598C23.9265 35.7598 22.5071 35.3474 21.5981 34.4304C20.6888 33.5132 20.3762 32.1775 20.3762 30.5438V23.5998V23.1998H20.7762H34.0962V12.7998H20.7762H20.3762V12.3998V3.95211L7.73616 7.11211ZM186.007 5.2798H186.305H200.305H200.842L200.688 5.79434L186.128 54.5143L186.043 54.7998H185.745H171.745H171.208L171.362 54.2853L185.922 5.56527L186.007 5.2798ZM186.603 6.0798L172.282 53.9998H185.447L199.768 6.0798H186.603ZM70.7387 13.5118C73.1842 12.2926 76.2838 11.4398 80.4302 11.4398C84.5535 11.4398 89.8677 12.612 92.6813 17.3607C96.2686 14.0908 101.439 11.4398 109.438 11.4398C112.42 11.4398 115.992 12.0344 118.826 14.1439C121.682 16.2695 123.726 19.8851 123.726 25.7838V45.9998V46.3998H123.326H109.886H109.486V45.9998V31.8318C109.486 28.9598 109.105 27.0174 108.193 25.7915C107.306 24.5985 105.848 23.9998 103.446 23.9998C100.212 23.9998 97.4833 25.3508 94.7182 28.0246V45.9998V46.3998H94.3182H80.8782H80.4782V45.9998V31.8318C80.4782 28.9598 80.0966 27.0174 79.1852 25.7915C78.2982 24.5985 76.8401 23.9998 74.4382 23.9998C71.2042 23.9998 68.4753 25.3508 65.7102 28.0246V45.9998V46.3998H65.3102H51.8702H51.4702V45.9998V12.3998V11.9998H51.8702H65.3102H65.7102V12.3998V17.0816C67.0596 15.8491 68.6549 14.5507 70.7387 13.5118ZM71.0956 14.2278C68.7632 15.3906 67.062 16.897 65.5846 18.2908L64.9102 18.9271V17.9998V12.7998H52.2702V45.5998H64.9102V27.8558V27.6878L65.0301 27.5702C67.9358 24.7215 70.8869 23.1998 74.4382 23.1998C76.9642 23.1998 78.7261 23.8331 79.8272 25.3142C80.9037 26.7622 81.2782 28.9358 81.2782 31.8318V45.5998H93.9182V27.8558V27.6878L94.0381 27.5702C96.9438 24.7215 99.8949 23.1998 103.446 23.1998C105.972 23.1998 107.734 23.8331 108.835 25.3142C109.912 26.7622 110.286 28.9358 110.286 31.8318V45.5998H122.926V25.7838C122.926 20.0905 120.966 16.7341 118.348 14.7857C115.709 12.8212 112.336 12.2398 109.438 12.2398C101.368 12.2398 96.3142 14.9978 92.858 18.2895L92.4771 18.6522L92.2293 18.1882C89.703 13.458 84.5793 12.2398 80.4302 12.2398C76.4005 12.2398 73.4241 13.067 71.0956 14.2278ZM130.532 15.5297C134.626 12.6763 140.434 11.4398 147.33 11.4398C154.28 11.4398 160.072 12.6754 164.13 15.8217C168.21 18.9843 170.466 24.0188 170.466 31.4398V31.8398H170.066H138.774C139.351 33.2034 140.384 34.0916 141.68 34.6572C143.148 35.2977 144.947 35.5198 146.77 35.5198C149.206 35.5198 150.87 35.4346 152.26 35.0905C153.633 34.7505 154.758 34.1522 156.097 33.0868L156.206 32.9998H156.346H169.506H169.989L169.899 33.474C169.039 38.0311 166.749 41.4248 162.896 43.6646C159.064 45.8925 153.718 46.9598 146.77 46.9598C140.151 46.9598 134.483 45.7224 130.46 42.868C126.413 39.9972 124.082 35.5274 124.082 29.1998C124.082 22.8716 126.414 18.4005 130.532 15.5297ZM130.99 16.186C127.115 18.8871 124.882 23.096 124.882 29.1998C124.882 35.3042 127.115 39.5144 130.922 42.2156C134.753 44.9333 140.229 46.1598 146.77 46.1598C153.654 46.1598 158.837 45.0991 162.494 42.973C165.997 40.9364 168.132 37.9051 169.017 33.7998H156.485C155.125 34.8659 153.923 35.5029 152.452 35.8671C150.958 36.237 149.206 36.3198 146.77 36.3198C144.897 36.3198 142.972 36.0939 141.36 35.3904C139.734 34.6808 138.421 33.4812 137.82 31.5591L137.658 31.0398H138.202H169.664C169.584 24.013 167.399 19.3683 163.64 16.4539C159.789 13.4682 154.212 12.2398 147.33 12.2398C140.506 12.2398 134.89 13.4673 130.99 16.186ZM35.7748 11.9998H36.1748H49.6148H50.0148V12.3998V45.9998V46.3998H49.6148H36.1748H35.7748V45.9998V12.3998V11.9998ZM36.5748 12.7998V45.5998H49.2148V12.7998H36.5748ZM139.512 24.3198H155.036C154.338 23.2812 153.35 22.66 152.16 22.2876C150.746 21.8453 149.063 21.7598 147.274 21.7598C145.485 21.7598 143.802 21.8453 142.388 22.2876C141.198 22.66 140.21 23.2812 139.512 24.3198ZM142.15 21.524C143.69 21.0423 145.479 20.9598 147.274 20.9598C149.069 20.9598 150.858 21.0423 152.398 21.524C153.955 22.011 155.273 22.9115 156.088 24.5409L156.377 25.1198H155.73H138.818H138.171L138.46 24.5409C139.275 22.9115 140.593 22.011 142.15 21.524ZM238.552 11.9998H239.368L241.672 5.19981L243.96 11.9998H244.776L247.896 3.99981H247.08L244.408 10.8798L242.088 3.99981H241.272L238.936 10.8798L236.264 3.99981H235.448L238.552 11.9998ZM248.688 8.03181C248.688 10.3038 250.336 12.1118 252.56 12.1118C254.096 12.1118 255.552 11.2478 256.048 10.0318V11.9998H256.8V3.99981H256.048V5.83981C255.36 4.55981 254.24 3.91981 252.576 3.91981C250.352 3.91981 248.688 5.72781 248.688 8.03181ZM252.8 11.3918C250.832 11.3918 249.456 9.95181 249.456 8.03181C249.456 6.39981 250.56 4.63981 252.816 4.63981C254.64 4.63981 256.048 6.03181 256.048 7.34381V8.73581C256.048 10.0638 254.416 11.3918 252.8 11.3918ZM260.214 2.35181V4.19181H258.534L258.39 4.91181H260.214V9.80781C260.214 11.3438 260.806 12.0798 262.294 12.0798C262.806 12.0798 263.398 11.9838 263.942 11.7918L263.83 11.0398C263.542 11.1678 263.126 11.2638 262.598 11.2958C261.43 11.3598 260.966 10.9918 260.966 9.40781V4.91181H263.654V4.19181H260.966V2.35181H260.214ZM269.274 12.1118C270.426 12.1118 271.53 11.6158 272.298 10.7998L271.77 10.2718C271.082 10.9918 270.234 11.3758 269.274 11.3758C267.418 11.3758 265.93 9.87181 265.93 8.03181C265.93 6.17581 267.434 4.65581 269.274 4.65581C270.218 4.65581 271.162 5.08781 271.754 5.75981L272.282 5.23181C271.514 4.39981 270.426 3.91981 269.274 3.91981C267.018 3.91981 265.162 5.77581 265.162 8.03181C265.162 10.2718 267.002 12.1118 269.274 12.1118ZM274.667 11.9998V6.83181C274.667 5.87181 275.675 4.76781 277.259 4.65581C278.987 4.54381 280.139 5.87181 280.139 8.03181V11.9998H280.891V8.03181C280.891 5.56781 279.547 3.91981 277.643 3.91981C276.267 3.91981 275.051 4.62381 274.667 5.58381V1.27981H273.915V11.9998H274.667ZM288.308 2.35181V4.19181H286.628L286.484 4.91181H288.308V9.80781C288.308 11.3438 288.9 12.0798 290.388 12.0798C290.9 12.0798 291.492 11.9838 292.036 11.7918L291.924 11.0398C291.636 11.1678 291.22 11.2638 290.692 11.2958C289.524 11.3598 289.06 10.9918 289.06 9.40781V4.91181H291.748V4.19181H289.06V2.35181H288.308ZM294.402 11.9998V6.83181C294.402 5.87181 295.41 4.76781 296.994 4.65581C298.722 4.54381 299.874 5.87181 299.874 8.03181V11.9998H300.626V8.03181C300.626 5.56781 299.282 3.91981 297.378 3.91981C296.002 3.91981 294.786 4.62381 294.402 5.58381V1.27981H293.65V11.9998H294.402ZM306.458 12.1118C307.93 12.1118 309.21 11.3278 309.914 10.0798L309.194 9.88781C308.554 10.8958 307.626 11.3918 306.458 11.3918C304.682 11.3918 303.37 10.0638 303.242 8.30381H310.426C310.426 8.25132 310.43 8.21289 310.434 8.17205C310.438 8.12574 310.442 8.07632 310.442 7.99981C310.442 5.71181 308.682 3.91981 306.458 3.91981C304.218 3.91981 302.474 5.74381 302.474 8.03181C302.474 10.3038 304.218 12.1118 306.458 12.1118ZM303.242 7.71181C303.37 5.93581 304.73 4.60781 306.458 4.60781C308.186 4.60781 309.53 5.90381 309.658 7.71181H303.242ZM317.652 2.35181V4.19181H315.972L315.828 4.91181H317.652V9.80781C317.652 11.3438 318.244 12.0798 319.732 12.0798C320.244 12.0798 320.836 11.9838 321.38 11.7918L321.268 11.0398C320.98 11.1678 320.564 11.2638 320.036 11.2958C318.868 11.3598 318.404 10.9918 318.404 9.40781V4.91181H321.092V4.19181H318.404V2.35181H317.652ZM322.929 1.59981C322.929 1.88781 323.121 2.06381 323.393 2.06381C323.681 2.06381 323.857 1.88781 323.857 1.59981C323.857 1.31181 323.681 1.13581 323.393 1.13581C323.121 1.13581 322.929 1.31181 322.929 1.59981ZM323.761 3.99981H322.993V11.9998H323.761V3.99981ZM326.652 11.9998V6.68781C326.652 5.79181 327.82 4.65581 329.324 4.62381C330.86 4.59181 331.836 5.83981 331.836 8.03181V11.9998H332.604V8.03181C332.604 7.50381 332.556 7.02381 332.444 6.57581C332.78 5.61581 333.836 4.70381 334.796 4.63981C336.476 4.52781 337.564 5.85581 337.564 8.03181V11.9998H338.332V8.03181C338.332 5.55181 337.084 3.91981 335.18 3.91981C333.932 3.91981 332.732 4.71981 332.236 5.87181C331.756 4.65581 330.844 3.91981 329.596 3.91981C328.06 3.91981 327.212 4.55981 326.652 5.48781V3.99981H325.9V11.9998H326.652ZM344.13 12.1118C345.602 12.1118 346.882 11.3278 347.586 10.0798L346.866 9.88781C346.226 10.8958 345.298 11.3918 344.13 11.3918C342.354 11.3918 341.042 10.0638 340.914 8.30381H348.098C348.098 8.25132 348.102 8.21289 348.105 8.17205C348.11 8.12574 348.114 8.07632 348.114 7.99981C348.114 5.71181 346.354 3.91981 344.13 3.91981C341.89 3.91981 340.146 5.74381 340.146 8.03181C340.146 10.3038 341.89 12.1118 344.13 12.1118ZM340.914 7.71181C341.042 5.93581 342.402 4.60781 344.13 4.60781C345.858 4.60781 347.202 5.90381 347.33 7.71181H340.914ZM353.548 8.03181C353.548 10.3038 355.196 12.1118 357.42 12.1118C358.956 12.1118 360.412 11.2478 360.908 10.0318V11.9998H361.66V3.99981H360.908V5.83981C360.22 4.55981 359.1 3.91981 357.436 3.91981C355.212 3.91981 353.548 5.72781 353.548 8.03181ZM357.66 11.3918C355.692 11.3918 354.316 9.95181 354.316 8.03181C354.316 6.39981 355.42 4.63981 357.676 4.63981C359.5 4.63981 360.908 6.03181 360.908 7.34381V8.73581C360.908 10.0638 359.276 11.3918 357.66 11.3918ZM363.427 9.66381C363.747 11.1198 364.867 12.1118 366.419 12.1118C368.035 12.1118 369.251 11.2158 369.251 10.0798C369.251 9.19981 368.755 8.63981 367.331 7.91981C367.032 7.77047 366.72 7.63508 366.289 7.44858L366.195 7.40781C364.851 6.79981 364.547 6.51181 364.547 5.85581C364.547 5.10381 365.363 4.54381 366.451 4.57581C367.587 4.60781 368.291 5.21581 368.403 6.25581L369.091 6.15981C368.995 4.76781 367.923 3.87181 366.387 3.90381C364.867 3.91981 363.779 4.71981 363.779 5.82381C363.779 6.75181 364.259 7.29581 365.587 7.87181C365.907 7.99981 366.419 8.22381 366.867 8.43181C368.067 9.02381 368.451 9.42381 368.451 10.0798C368.451 10.8158 367.571 11.4238 366.419 11.4238C365.315 11.4238 364.435 10.6398 364.179 9.58381L363.427 9.66381ZM374.929 1.59981C374.929 1.88781 375.121 2.06381 375.393 2.06381C375.681 2.06381 375.857 1.88781 375.857 1.59981C375.857 1.31181 375.681 1.13581 375.393 1.13581C375.121 1.13581 374.929 1.31181 374.929 1.59981ZM375.761 3.99981H374.993V11.9998H375.761V3.99981ZM379.324 2.35181V4.19181H377.644L377.5 4.91181H379.324V9.80781C379.324 11.3438 379.916 12.0798 381.404 12.0798C381.916 12.0798 382.508 11.9838 383.052 11.7918L382.94 11.0398C382.652 11.1678 382.236 11.2638 381.708 11.2958C380.54 11.3598 380.076 10.9918 380.076 9.40781V4.91181H382.764V4.19181H380.076V2.35181H379.324ZM395.078 3.99981L392.07 11.0558L388.95 3.99981H388.134L391.67 11.9998H392.486L395.894 3.99981H395.078ZM397.226 1.59981C397.226 1.88781 397.418 2.06381 397.69 2.06381C397.978 2.06381 398.154 1.88781 398.154 1.59981C398.154 1.31181 397.978 1.13581 397.69 1.13581C397.418 1.13581 397.226 1.31181 397.226 1.59981ZM398.058 3.99981H397.29V11.9998H398.058V3.99981ZM399.974 9.66381C400.294 11.1198 401.414 12.1118 402.966 12.1118C404.582 12.1118 405.798 11.2158 405.798 10.0798C405.798 9.19981 405.302 8.63981 403.878 7.91981C403.579 7.77047 403.267 7.63508 402.836 7.44858L402.742 7.40781C401.398 6.79981 401.094 6.51181 401.094 5.85581C401.094 5.10381 401.91 4.54381 402.998 4.57581C404.134 4.60781 404.838 5.21581 404.95 6.25581L405.638 6.15981C405.542 4.76781 404.47 3.87181 402.934 3.90381C401.414 3.91981 400.326 4.71981 400.326 5.82381C400.326 6.75181 400.806 7.29581 402.134 7.87181C402.454 7.99981 402.966 8.22381 403.414 8.43181C404.614 9.02381 404.998 9.42381 404.998 10.0798C404.998 10.8158 404.118 11.4238 402.966 11.4238C401.862 11.4238 400.982 10.6398 400.726 9.58381L399.974 9.66381ZM407.398 1.59981C407.398 1.88781 407.59 2.06381 407.862 2.06381C408.15 2.06381 408.326 1.88781 408.326 1.59981C408.326 1.31181 408.15 1.13581 407.862 1.13581C407.59 1.13581 407.398 1.31181 407.398 1.59981ZM408.23 3.99981H407.462V11.9998H408.23V3.99981ZM418.528 8.03181C418.528 5.72781 416.88 3.91981 414.656 3.91981C412.992 3.91981 411.856 4.55981 411.168 5.83981V1.27981H410.416V11.9998H411.168V10.0318C411.664 11.2478 413.12 12.1118 414.656 12.1118C416.88 12.1118 418.528 10.3038 418.528 8.03181ZM411.168 8.73581V7.34381C411.168 6.03181 412.592 4.63981 414.416 4.63981C416.672 4.63981 417.76 6.39981 417.76 8.03181C417.76 9.95181 416.384 11.3918 414.416 11.3918C412.8 11.3918 411.168 10.0638 411.168 8.73581ZM421.121 11.9998V1.27981H420.353V11.9998H421.121ZM427.083 12.1118C428.555 12.1118 429.835 11.3278 430.539 10.0798L429.819 9.88781C429.179 10.8958 428.251 11.3918 427.083 11.3918C425.307 11.3918 423.995 10.0638 423.867 8.30381H431.051C431.051 8.25132 431.055 8.21289 431.059 8.17205C431.063 8.12574 431.067 8.07632 431.067 7.99981C431.067 5.71181 429.307 3.91981 427.083 3.91981C424.843 3.91981 423.099 5.74381 423.099 8.03181C423.099 10.3038 424.843 12.1118 427.083 12.1118ZM423.867 7.71181C423.995 5.93581 425.355 4.60781 427.083 4.60781C428.811 4.60781 430.155 5.90381 430.283 7.71181H423.867ZM431.38 14.0478H431.924L433.46 10.4158V9.96781H432.708L431.38 14.0478ZM447.138 8.03181C447.138 5.72781 445.49 3.91981 443.266 3.91981C441.602 3.91981 440.466 4.55981 439.778 5.83981V1.27981H439.026V11.9998H439.778V10.0318C440.274 11.2478 441.73 12.1118 443.266 12.1118C445.49 12.1118 447.138 10.3038 447.138 8.03181ZM439.778 8.73581V7.34381C439.778 6.03181 441.202 4.63981 443.026 4.63981C445.282 4.63981 446.37 6.39981 446.37 8.03181C446.37 9.95181 444.994 11.3918 443.026 11.3918C441.41 11.3918 439.778 10.0638 439.778 8.73581ZM452.771 12.1118C454.243 12.1118 455.523 11.3278 456.227 10.0798L455.507 9.88781C454.867 10.8958 453.939 11.3918 452.771 11.3918C450.995 11.3918 449.683 10.0638 449.555 8.30381H456.739C456.739 8.25132 456.742 8.21289 456.746 8.17205C456.75 8.12574 456.755 8.07632 456.755 7.99981C456.755 5.71181 454.995 3.91981 452.771 3.91981C450.531 3.91981 448.787 5.74381 448.787 8.03181C448.787 10.3038 450.531 12.1118 452.771 12.1118ZM449.555 7.71181C449.683 5.93581 451.043 4.60781 452.771 4.60781C454.499 4.60781 455.843 5.90381 455.971 7.71181H449.555ZM463.964 2.35181V4.19181H462.284L462.14 4.91181H463.964V9.80781C463.964 11.3438 464.556 12.0798 466.044 12.0798C466.556 12.0798 467.148 11.9838 467.692 11.7918L467.58 11.0398C467.292 11.1678 466.876 11.2638 466.348 11.2958C465.18 11.3598 464.716 10.9918 464.716 9.40781V4.91181H467.404V4.19181H464.716V2.35181H463.964ZM470.058 11.9998V6.83181C470.058 5.87181 471.066 4.76781 472.65 4.65581C474.378 4.54381 475.53 5.87181 475.53 8.03181V11.9998H476.282V8.03181C476.282 5.56781 474.938 3.91981 473.034 3.91981C471.658 3.91981 470.442 4.62381 470.058 5.58381V1.27981H469.306V11.9998H470.058ZM482.115 12.1118C483.587 12.1118 484.867 11.3278 485.571 10.0798L484.851 9.88781C484.211 10.8958 483.283 11.3918 482.115 11.3918C480.339 11.3918 479.027 10.0638 478.899 8.30381H486.083C486.083 8.25132 486.086 8.21289 486.09 8.17205C486.094 8.12574 486.099 8.07632 486.099 7.99981C486.099 5.71181 484.339 3.91981 482.115 3.91981C479.875 3.91981 478.131 5.74381 478.131 8.03181C478.131 10.3038 479.875 12.1118 482.115 12.1118ZM478.899 7.71181C479.027 5.93581 480.387 4.60781 482.115 4.60781C483.843 4.60781 485.187 5.90381 485.315 7.71181H478.899ZM237.464 26.3518V28.1918H235.784L235.64 28.9118H237.464V33.8078C237.464 35.3438 238.056 36.0798 239.544 36.0798C240.056 36.0798 240.648 35.9838 241.192 35.7918L241.08 35.0398C240.792 35.1678 240.376 35.2638 239.848 35.2958C238.68 35.3598 238.216 34.9918 238.216 33.4078V28.9118H240.904V28.1918H238.216V26.3518H237.464ZM242.742 25.5998C242.742 25.8878 242.934 26.0638 243.206 26.0638C243.494 26.0638 243.67 25.8878 243.67 25.5998C243.67 25.3118 243.494 25.1358 243.206 25.1358C242.934 25.1358 242.742 25.3118 242.742 25.5998ZM243.574 35.9998V27.9998H242.806V35.9998H243.574ZM246.464 35.9998V30.6878C246.464 29.7918 247.632 28.6558 249.136 28.6238C250.672 28.5918 251.648 29.8398 251.648 32.0318V35.9998H252.416V32.0318C252.416 31.5038 252.368 31.0238 252.256 30.5758C252.592 29.6158 253.648 28.7038 254.608 28.6398C256.288 28.5278 257.376 29.8558 257.376 32.0318V35.9998H258.144V32.0318C258.144 29.5518 256.896 27.9198 254.992 27.9198C253.744 27.9198 252.544 28.7198 252.048 29.8718C251.568 28.6558 250.656 27.9198 249.408 27.9198C247.872 27.9198 247.024 28.5598 246.464 29.4878V27.9998H245.712V35.9998H246.464ZM263.943 36.1118C265.415 36.1118 266.695 35.3278 267.399 34.0798L266.679 33.8878C266.039 34.8958 265.111 35.3918 263.943 35.3918C262.167 35.3918 260.855 34.0638 260.727 32.3038H267.911C267.911 32.2513 267.914 32.2129 267.918 32.172C267.921 32.1401 267.924 32.1068 267.926 32.0641C267.926 32.0448 267.927 32.0236 267.927 31.9998C267.927 29.7118 266.167 27.9198 263.943 27.9198C261.703 27.9198 259.959 29.7438 259.959 32.0318C259.959 34.3038 261.703 36.1118 263.943 36.1118ZM260.727 31.7118C260.855 29.9358 262.215 28.6078 263.943 28.6078C265.671 28.6078 267.015 29.9038 267.143 31.7118H260.727ZM273.36 32.0318C273.36 34.3038 275.008 36.1118 277.232 36.1118C278.768 36.1118 280.224 35.2478 280.72 34.0318V35.9998H281.472V27.9998H280.72V29.8398C280.032 28.5598 278.912 27.9198 277.248 27.9198C275.024 27.9198 273.36 29.7278 273.36 32.0318ZM277.472 35.3918C275.504 35.3918 274.128 33.9518 274.128 32.0318C274.128 30.3998 275.232 28.6398 277.488 28.6398C279.312 28.6398 280.72 30.0318 280.72 31.3438V32.7358C280.72 34.0638 279.088 35.3918 277.472 35.3918ZM283.24 33.6638C283.56 35.1198 284.68 36.1118 286.232 36.1118C287.848 36.1118 289.064 35.2158 289.064 34.0798C289.064 33.1998 288.568 32.6398 287.144 31.9198C286.845 31.7705 286.532 31.6351 286.102 31.4486L286.008 31.4078C284.664 30.7998 284.36 30.5118 284.36 29.8558C284.36 29.1038 285.176 28.5438 286.264 28.5758C287.4 28.6078 288.104 29.2158 288.216 30.2558L288.904 30.1598C288.808 28.7678 287.736 27.8718 286.2 27.9038C284.68 27.9198 283.592 28.7198 283.592 29.8238C283.592 30.7518 284.072 31.2958 285.4 31.8718C285.72 31.9998 286.232 32.2238 286.68 32.4318C287.88 33.0238 288.264 33.4238 288.264 34.0798C288.264 34.8158 287.384 35.4238 286.232 35.4238C285.128 35.4238 284.248 34.6398 283.992 33.5838L283.24 33.6638ZM294.742 25.5998C294.742 25.8878 294.934 26.0638 295.206 26.0638C295.494 26.0638 295.67 25.8878 295.67 25.5998C295.67 25.3118 295.494 25.1358 295.206 25.1358C294.934 25.1358 294.742 25.3118 294.742 25.5998ZM295.574 35.9998V27.9998H294.806V35.9998H295.574ZM299.136 26.3518V28.1918H297.456L297.312 28.9118H299.136V33.8078C299.136 35.3438 299.728 36.0798 301.216 36.0798C301.728 36.0798 302.32 35.9838 302.864 35.7918L302.752 35.0398C302.464 35.1678 302.048 35.2638 301.52 35.2958C300.352 35.3598 299.888 34.9918 299.888 33.4078V28.9118H302.576V28.1918H299.888V26.3518H299.136ZM310.027 26.3518V28.1918H308.347L308.203 28.9118H310.027V33.8078C310.027 35.3438 310.619 36.0798 312.107 36.0798C312.619 36.0798 313.211 35.9838 313.755 35.7918L313.643 35.0398C313.355 35.1678 312.939 35.2638 312.411 35.2958C311.243 35.3598 310.779 34.9918 310.779 33.4078V28.9118H313.467V28.1918H310.779V26.3518H310.027ZM314.766 32.0318C314.766 34.3038 316.414 36.1118 318.638 36.1118C320.174 36.1118 321.63 35.2478 322.126 34.0318V35.9998H322.878V27.9998H322.126V29.8398C321.438 28.5598 320.318 27.9198 318.654 27.9198C316.43 27.9198 314.766 29.7278 314.766 32.0318ZM318.878 35.3918C316.91 35.3918 315.534 33.9518 315.534 32.0318C315.534 30.3998 316.638 28.6398 318.894 28.6398C320.718 28.6398 322.126 30.0318 322.126 31.3438V32.7358C322.126 34.0638 320.494 35.3918 318.878 35.3918ZM325.924 30.8318C325.924 29.8398 327.044 28.7358 328.516 28.6398C330.18 28.5438 331.412 29.8718 331.412 32.0318V35.9998H332.18V32.0318C332.18 29.5998 330.756 27.9198 328.9 27.9198C327.476 27.9198 326.548 28.5758 325.924 29.5518V27.9998H325.172V35.9998H325.924V30.8318ZM341.27 29.9998C340.63 28.5758 339.494 27.9198 337.702 27.9198C335.462 27.9198 333.926 29.6958 333.926 32.0318C333.926 34.3518 335.51 36.1118 337.702 36.1118C339.43 36.1118 340.854 35.2158 341.27 33.9038V35.9998C341.27 38.0638 339.926 39.1838 337.622 39.0398C336.39 38.9598 335.43 38.6398 334.502 38.0318L334.39 38.7998C335.318 39.4078 336.326 39.6958 337.622 39.7758C340.374 39.9518 342.038 38.5118 342.038 35.9998V27.9998H341.27V29.9998ZM341.27 32.6398C341.27 34.0478 339.814 35.3118 338.07 35.3918C336.118 35.4718 334.678 34.0638 334.678 32.0318C334.678 29.9518 336.118 28.5278 338.102 28.6398C339.75 28.7198 340.806 29.6478 341.27 31.1678V32.6398ZM344.101 25.5998C344.101 25.8878 344.293 26.0638 344.565 26.0638C344.853 26.0638 345.029 25.8878 345.029 25.5998C345.029 25.3118 344.853 25.1358 344.565 25.1358C344.293 25.1358 344.101 25.3118 344.101 25.5998ZM344.933 35.9998V27.9998H344.165V35.9998H344.933ZM355.231 32.0318C355.231 29.7278 353.583 27.9198 351.359 27.9198C349.695 27.9198 348.559 28.5598 347.871 29.8398V25.2798H347.119V35.9998H347.871V34.0318C348.367 35.2478 349.823 36.1118 351.359 36.1118C353.583 36.1118 355.231 34.3038 355.231 32.0318ZM347.871 32.7358V31.3438C347.871 30.0318 349.295 28.6398 351.119 28.6398C353.375 28.6398 354.463 30.3998 354.463 32.0318C354.463 33.9518 353.087 35.3918 351.119 35.3918C349.503 35.3918 347.871 34.0638 347.871 32.7358ZM357.825 35.9998V25.2798H357.057V35.9998H357.825ZM363.786 36.1118C365.258 36.1118 366.538 35.3278 367.242 34.0798L366.522 33.8878C365.882 34.8958 364.954 35.3918 363.786 35.3918C362.01 35.3918 360.698 34.0638 360.57 32.3038H367.754C367.754 32.2513 367.758 32.2129 367.762 32.172C367.766 32.1257 367.77 32.0763 367.77 31.9998C367.77 29.7118 366.01 27.9198 363.786 27.9198C361.546 27.9198 359.802 29.7438 359.802 32.0318C359.802 34.3038 361.546 36.1118 363.786 36.1118ZM360.57 31.7118C360.698 29.9358 362.058 28.6078 363.786 28.6078C365.514 28.6078 366.858 29.9038 366.986 31.7118H360.57ZM368.083 38.0478H368.627L370.163 34.4158V33.9678H369.411L368.083 38.0478ZM377.105 26.3518V28.1918H375.425L375.281 28.9118H377.105V33.8078C377.105 35.3438 377.697 36.0798 379.185 36.0798C379.697 36.0798 380.289 35.9838 380.833 35.7918L380.721 35.0398C380.433 35.1678 380.017 35.2638 379.489 35.2958C378.321 35.3598 377.857 34.9918 377.857 33.4078V28.9118H380.545V28.1918H377.857V26.3518H377.105ZM382.539 35.9998H383.307V30.7038C383.307 29.8558 384.267 28.7358 385.659 28.6398C386.331 28.5918 386.795 28.6718 387.419 28.8958L387.547 28.0958C387.115 27.9838 386.427 27.8718 385.835 27.9198C384.459 28.0318 383.659 28.6878 383.307 29.5678V27.9998H382.539V35.9998ZM388.204 32.0318C388.204 34.3038 389.852 36.1118 392.076 36.1118C393.612 36.1118 395.068 35.2478 395.564 34.0318V35.9998H396.316V27.9998H395.564V29.8398C394.876 28.5598 393.756 27.9198 392.092 27.9198C389.868 27.9198 388.204 29.7278 388.204 32.0318ZM392.316 35.3918C390.348 35.3918 388.972 33.9518 388.972 32.0318C388.972 30.3998 390.076 28.6398 392.332 28.6398C394.156 28.6398 395.564 30.0318 395.564 31.3438V32.7358C395.564 34.0638 393.932 35.3918 392.316 35.3918ZM404.594 27.9998L401.586 35.0558L398.466 27.9998H397.65L401.186 35.9998H402.002L405.41 27.9998H404.594ZM410.333 36.1118C411.805 36.1118 413.085 35.3278 413.789 34.0798L413.069 33.8878C412.429 34.8958 411.501 35.3918 410.333 35.3918C408.557 35.3918 407.245 34.0638 407.117 32.3038H414.301C414.301 32.2513 414.305 32.2129 414.309 32.172C414.313 32.1257 414.317 32.0763 414.317 31.9998C414.317 29.7118 412.557 27.9198 410.333 27.9198C408.093 27.9198 406.349 29.7438 406.349 32.0318C406.349 34.3038 408.093 36.1118 410.333 36.1118ZM407.117 31.7118C407.245 29.9358 408.605 28.6078 410.333 28.6078C412.061 28.6078 413.405 29.9038 413.533 31.7118H407.117ZM416.903 35.9998V25.2798H416.135V35.9998H416.903ZM424.449 26.3518V28.1918H422.769L422.625 28.9118H424.449V33.8078C424.449 35.3438 425.041 36.0798 426.529 36.0798C427.041 36.0798 427.633 35.9838 428.177 35.7918L428.065 35.0398C427.777 35.1678 427.361 35.2638 426.833 35.2958C425.665 35.3598 425.201 34.9918 425.201 33.4078V28.9118H427.889V28.1918H425.201V26.3518H424.449ZM430.542 35.9998V30.8318C430.542 29.8718 431.55 28.7678 433.134 28.6558C434.862 28.5438 436.014 29.8718 436.014 32.0318V35.9998H436.766V32.0318C436.766 29.5678 435.422 27.9198 433.518 27.9198C432.142 27.9198 430.926 28.6238 430.542 29.5838V25.2798H429.79V35.9998H430.542ZM438.727 35.9998H439.495V30.7038C439.495 29.8558 440.455 28.7358 441.847 28.6398C442.519 28.5918 442.983 28.6718 443.607 28.8958L443.735 28.0958C443.303 27.9838 442.615 27.8718 442.023 27.9198C440.647 28.0318 439.847 28.6878 439.495 29.5678V27.9998H438.727V35.9998ZM448.631 36.1118C450.887 36.1118 452.743 34.2878 452.743 32.0318C452.743 29.7758 450.887 27.9198 448.631 27.9198C446.375 27.9198 444.519 29.7758 444.519 32.0318C444.519 34.2878 446.375 36.1118 448.631 36.1118ZM448.631 28.6078C450.487 28.6078 451.991 30.1758 451.991 32.0318C451.991 33.9358 450.439 35.4078 448.631 35.4078C446.791 35.4078 445.287 33.8878 445.287 32.0318C445.287 30.1118 446.823 28.6078 448.631 28.6078ZM460.604 33.1518C460.604 34.1598 459.516 35.2478 458.044 35.3438C456.38 35.4558 455.148 34.1278 455.148 31.9678V27.9998H454.38V31.9678C454.38 34.3998 455.804 36.0798 457.66 36.0798C459.084 36.0798 459.996 35.4238 460.604 34.4478V35.9998H461.372V27.9998H460.604V33.1518ZM470.583 29.9998C469.943 28.5758 468.807 27.9198 467.015 27.9198C464.775 27.9198 463.239 29.6958 463.239 32.0318C463.239 34.3518 464.823 36.1118 467.015 36.1118C468.743 36.1118 470.167 35.2158 470.583 33.9038V35.9998C470.583 38.0638 469.239 39.1838 466.935 39.0398C465.703 38.9598 464.743 38.6398 463.815 38.0318L463.703 38.7998C464.631 39.4078 465.639 39.6958 466.935 39.7758C469.687 39.9518 471.351 38.5118 471.351 35.9998V27.9998H470.583V29.9998ZM470.583 32.6398C470.583 34.0478 469.127 35.3118 467.383 35.3918C465.431 35.4718 463.991 34.0638 463.991 32.0318C463.991 29.9518 465.431 28.5278 467.415 28.6398C469.063 28.7198 470.119 29.6478 470.583 31.1678V32.6398ZM474.23 35.9998V30.8318C474.23 29.8718 475.238 28.7678 476.822 28.6558C478.55 28.5438 479.702 29.8718 479.702 32.0318V35.9998H480.454V32.0318C480.454 29.5678 479.11 27.9198 477.206 27.9198C475.83 27.9198 474.614 28.6238 474.23 29.5838V25.2798H473.478V35.9998H474.23ZM237.464 50.3518V52.1918H235.784L235.64 52.9118H237.464V57.8078C237.464 59.3438 238.056 60.0798 239.544 60.0798C240.056 60.0798 240.648 59.9838 241.192 59.7918L241.08 59.0398C240.792 59.1678 240.376 59.2638 239.848 59.2958C238.68 59.3598 238.216 58.9918 238.216 57.4078V52.9118H240.904V52.1918H238.216V50.3518H237.464ZM242.742 49.5998C242.742 49.8878 242.934 50.0638 243.206 50.0638C243.494 50.0638 243.67 49.8878 243.67 49.5998C243.67 49.3118 243.494 49.1358 243.206 49.1358C242.934 49.1358 242.742 49.3118 242.742 49.5998ZM243.574 59.9998V51.9998H242.806V59.9998H243.574ZM246.464 59.9998V54.6878C246.464 53.7918 247.632 52.6558 249.136 52.6238C250.672 52.5918 251.648 53.8398 251.648 56.0318V59.9998H252.416V56.0318C252.416 55.5038 252.368 55.0238 252.256 54.5758C252.592 53.6158 253.648 52.7038 254.608 52.6398C256.288 52.5278 257.376 53.8558 257.376 56.0318V59.9998H258.144V56.0318C258.144 53.5518 256.896 51.9198 254.992 51.9198C253.744 51.9198 252.544 52.7198 252.048 53.8718C251.568 52.6558 250.656 51.9198 249.408 51.9198C247.872 51.9198 247.024 52.5598 246.464 53.4878V51.9998H245.712V59.9998H246.464ZM263.943 60.1118C265.415 60.1118 266.695 59.3278 267.399 58.0798L266.679 57.8878C266.039 58.8958 265.111 59.3918 263.943 59.3918C262.167 59.3918 260.855 58.0638 260.727 56.3038H267.911C267.911 56.2513 267.914 56.2129 267.918 56.172C267.922 56.1257 267.927 56.0763 267.927 55.9998C267.927 53.7118 266.167 51.9198 263.943 51.9198C261.703 51.9198 259.959 53.7438 259.959 56.0318C259.959 58.3038 261.703 60.1118 263.943 60.1118ZM260.727 55.7118C260.855 53.9358 262.215 52.6078 263.943 52.6078C265.671 52.6078 267.015 53.9038 267.143 55.7118H260.727ZM273.36 56.0318C273.36 58.3038 275.008 60.1118 277.232 60.1118C278.768 60.1118 280.224 59.2478 280.72 58.0318V59.9998H281.472V51.9998H280.72V53.8398C280.032 52.5598 278.912 51.9198 277.248 51.9198C275.024 51.9198 273.36 53.7278 273.36 56.0318ZM277.472 59.3918C275.504 59.3918 274.128 57.9518 274.128 56.0318C274.128 54.3998 275.232 52.6398 277.488 52.6398C279.312 52.6398 280.72 54.0318 280.72 55.3438V56.7358C280.72 58.0638 279.088 59.3918 277.472 59.3918ZM283.24 57.6638C283.56 59.1198 284.68 60.1118 286.232 60.1118C287.848 60.1118 289.064 59.2158 289.064 58.0798C289.064 57.1998 288.568 56.6398 287.144 55.9198C286.845 55.7705 286.532 55.6351 286.102 55.4486L286.008 55.4078C284.664 54.7998 284.36 54.5118 284.36 53.8558C284.36 53.1038 285.176 52.5438 286.264 52.5758C287.4 52.6078 288.104 53.2158 288.216 54.2558L288.904 54.1598C288.808 52.7678 287.736 51.8718 286.2 51.9038C284.68 51.9198 283.592 52.7198 283.592 53.8238C283.592 54.7518 284.072 55.2958 285.4 55.8718C285.72 55.9998 286.232 56.2238 286.68 56.4318C287.88 57.0238 288.264 57.4238 288.264 58.0798C288.264 58.8158 287.384 59.4238 286.232 59.4238C285.128 59.4238 284.248 58.6398 283.992 57.5838L283.24 57.6638ZM294.742 49.5998C294.742 49.8878 294.934 50.0638 295.206 50.0638C295.494 50.0638 295.67 49.8878 295.67 49.5998C295.67 49.3118 295.494 49.1358 295.206 49.1358C294.934 49.1358 294.742 49.3118 294.742 49.5998ZM295.574 51.9998H294.806V59.9998H295.574V51.9998ZM299.136 50.3518V52.1918H297.456L297.312 52.9118H299.136V57.8078C299.136 59.3438 299.728 60.0798 301.216 60.0798C301.728 60.0798 302.32 59.9838 302.864 59.7918L302.752 59.0398C302.464 59.1678 302.048 59.2638 301.52 59.2958C300.352 59.3598 299.888 58.9918 299.888 57.4078V52.9118H302.576V52.1918H299.888V50.3518H299.136ZM316.747 55.9678C316.747 53.7278 315.067 51.8878 312.907 51.8878C311.323 51.8878 310.059 52.6238 309.403 53.9198V51.9998H308.635V62.3998H309.403V58.1118C310.059 59.3438 311.371 60.0798 312.907 60.0798C315.115 60.0798 316.747 58.2718 316.747 55.9678ZM309.403 55.5198C309.403 53.9358 310.875 52.6078 312.667 52.6078C314.571 52.6078 315.995 54.0478 315.995 55.9678C315.995 57.9518 314.619 59.3598 312.667 59.3438C311.035 59.3438 309.403 57.9998 309.403 56.6238V55.5198ZM322.475 60.1118C324.731 60.1118 326.587 58.2878 326.587 56.0318C326.587 53.7758 324.731 51.9198 322.475 51.9198C320.219 51.9198 318.363 53.7758 318.363 56.0318C318.363 58.2878 320.219 60.1118 322.475 60.1118ZM322.475 52.6078C324.331 52.6078 325.835 54.1758 325.835 56.0318C325.835 57.9358 324.283 59.4078 322.475 59.4078C320.635 59.4078 319.131 57.8878 319.131 56.0318C319.131 54.1118 320.667 52.6078 322.475 52.6078ZM328.068 57.6638C328.388 59.1198 329.508 60.1118 331.06 60.1118C332.676 60.1118 333.892 59.2158 333.892 58.0798C333.892 57.1998 333.396 56.6398 331.972 55.9198C331.673 55.7705 331.36 55.6351 330.93 55.4486L330.836 55.4078C329.492 54.7998 329.188 54.5118 329.188 53.8558C329.188 53.1038 330.004 52.5438 331.092 52.5758C332.228 52.6078 332.932 53.2158 333.044 54.2558L333.732 54.1598C333.636 52.7678 332.564 51.8718 331.028 51.9038C329.508 51.9198 328.42 52.7198 328.42 53.8238C328.42 54.7518 328.9 55.2958 330.228 55.8718C330.548 55.9998 331.06 56.2238 331.508 56.4318C332.708 57.0238 333.092 57.4238 333.092 58.0798C333.092 58.8158 332.212 59.4238 331.06 59.4238C329.956 59.4238 329.076 58.6398 328.82 57.5838L328.068 57.6638ZM334.974 57.6638C335.294 59.1198 336.414 60.1118 337.966 60.1118C339.582 60.1118 340.798 59.2158 340.798 58.0798C340.798 57.1998 340.302 56.6398 338.878 55.9198C338.579 55.7705 338.267 55.6351 337.836 55.4486L337.742 55.4078C336.398 54.7998 336.094 54.5118 336.094 53.8558C336.094 53.1038 336.91 52.5438 337.998 52.5758C339.134 52.6078 339.838 53.2158 339.95 54.2558L340.638 54.1598C340.542 52.7678 339.47 51.8718 337.934 51.9038C336.414 51.9198 335.326 52.7198 335.326 53.8238C335.326 54.7518 335.806 55.2958 337.134 55.8718C337.454 55.9998 337.966 56.2238 338.414 56.4318C339.614 57.0238 339.998 57.4238 339.998 58.0798C339.998 58.8158 339.118 59.4238 337.966 59.4238C336.862 59.4238 335.982 58.6398 335.726 57.5838L334.974 57.6638ZM342.398 49.5998C342.398 49.8878 342.59 50.0638 342.862 50.0638C343.15 50.0638 343.326 49.8878 343.326 49.5998C343.326 49.3118 343.15 49.1358 342.862 49.1358C342.59 49.1358 342.398 49.3118 342.398 49.5998ZM343.23 51.9998H342.462V59.9998H343.23V51.9998ZM353.528 56.0318C353.528 53.7278 351.88 51.9198 349.656 51.9198C347.992 51.9198 346.856 52.5598 346.168 53.8398V49.2798H345.416V59.9998H346.168V58.0318C346.664 59.2478 348.12 60.1118 349.656 60.1118C351.88 60.1118 353.528 58.3038 353.528 56.0318ZM346.168 56.7358V55.3438C346.168 54.0318 347.592 52.6398 349.416 52.6398C351.672 52.6398 352.76 54.3998 352.76 56.0318C352.76 57.9518 351.384 59.3918 349.416 59.3918C347.8 59.3918 346.168 58.0638 346.168 56.7358ZM356.121 59.9998V49.2798H355.353V59.9998H356.121ZM362.083 60.1118C363.555 60.1118 364.835 59.3278 365.539 58.0798L364.819 57.8878C364.179 58.8958 363.251 59.3918 362.083 59.3918C360.307 59.3918 358.995 58.0638 358.867 56.3038H366.051C366.051 56.2756 366.052 56.2515 366.054 56.2289C366.055 56.2093 366.057 56.191 366.059 56.172C366.061 56.1399 366.065 56.1062 366.066 56.0629C366.067 56.044 366.067 56.0231 366.067 55.9998C366.067 53.7118 364.307 51.9198 362.083 51.9198C359.843 51.9198 358.099 53.7438 358.099 56.0318C358.099 58.3038 359.843 60.1118 362.083 60.1118ZM358.867 55.7118C358.995 53.9358 360.355 52.6078 362.083 52.6078C363.811 52.6078 365.155 53.9038 365.283 55.7118H358.867ZM331.208 77.9998H330H157H140.5V78.9998H157H328.793L322.793 84.9998H316.766C316.569 83.0343 314.91 81.4998 312.893 81.4998C310.876 81.4998 309.217 83.0343 309.02 84.9998H140.766C140.569 83.0343 138.91 81.4998 136.893 81.4998C134.743 81.4998 133 83.2426 133 85.3925C133 86.214 133.255 86.9761 133.689 87.6042L118.647 102.646L118.5 102.793V103V113.793L105.897 126.396L78.6493 153.644C77.9446 152.937 76.9698 152.5 75.8929 152.5C73.743 152.5 72.0002 154.243 72.0002 156.393C72.0002 158.41 73.5348 160.069 75.5005 160.266V175.519C73.5348 175.716 72.0002 177.375 72.0002 179.393C72.0002 181.542 73.743 183.285 75.8929 183.285C78.0428 183.285 79.7856 181.542 79.7856 179.393C79.7856 177.449 78.3618 175.839 76.5005 175.547V160.238C78.3618 159.946 79.7856 158.336 79.7856 156.393C79.7856 155.683 79.5955 155.017 79.2635 154.444L106.604 127.103L136.854 96.8534L137 96.7069V96.4998V89.2838C138.895 89.2324 140.452 87.8268 140.739 85.9998H309.047C309.339 87.8613 310.95 89.2853 312.893 89.2853C314.836 89.2853 316.447 87.8613 316.739 85.9998H323H323.208L323.354 85.8534L330.354 78.8534L331.208 77.9998ZM119.5 103.207L134.359 88.348C134.824 88.7469 135.384 89.0379 136 89.1825V96.2927L119.5 112.793V103.207Z" fill="white"/>
</svg>
