<svg width="292" height="48" viewBox="0 0 292 48" fill="none" xmlns="http://www.w3.org/2000/svg">
<path fill-rule="evenodd" clip-rule="evenodd" d="M292 5.90562C292 9.1672 289.356 11.8112 286.094 11.8112C283.001 11.8112 280.463 9.43319 280.21 6.40562H258.759C254.809 6.40562 250.953 7.08486 247.335 8.36231C247.782 9.19383 248.036 10.1448 248.036 11.1551C248.036 14.4166 245.392 17.0607 242.13 17.0607C239.963 17.0607 238.068 15.8928 237.04 14.1518C234.07 16.5797 231.486 19.522 229.434 22.8979L228.794 23.9509L229.434 25.0039C235.659 35.2446 246.775 41.4962 258.759 41.4962H280.21C280.463 38.4687 283.001 36.0906 286.094 36.0906C289.356 36.0906 292 38.7347 292 41.9962C292 45.2578 289.356 47.9019 286.094 47.9019C283.001 47.9019 280.463 45.5238 280.21 42.4962H258.759C246.425 42.4962 234.986 36.0624 228.579 25.5234L228.209 24.9135L224.546 30.9393C221.175 36.4852 215.155 39.8708 208.665 39.8708C202.175 39.8708 196.155 36.4852 192.784 30.9393L191.371 28.6138C190.822 28.7821 190.24 28.8726 189.636 28.8726C188.717 28.8726 187.846 28.6626 187.07 28.2878L183.863 33.5648C180.492 39.1106 174.472 42.4962 167.982 42.4962C164.306 42.4962 160.78 41.4099 157.802 39.4599C156.805 40.227 155.557 40.6831 154.202 40.6831C150.941 40.6831 148.297 38.0391 148.297 34.7775C148.297 33.0606 149.029 31.5148 150.199 30.4357L146.843 24.9135L143.18 30.9393C139.809 36.4852 133.789 39.8708 127.299 39.8708C120.809 39.8708 114.789 36.4852 111.418 30.9393L107.755 24.9135L102.497 33.5648C99.1256 39.1106 93.1057 42.4962 86.6157 42.4962C82.9396 42.4962 79.4143 41.41 76.4358 39.4602C75.4393 40.2276 74.1909 40.6839 72.836 40.6839C69.5744 40.6839 66.9303 38.0398 66.9303 34.7783C66.9303 33.0612 67.6632 31.5152 68.8331 30.4362L65.8469 25.5234C65.709 25.2965 65.5687 25.0715 65.426 24.8486C58.844 34.2254 48.075 39.8708 36.5221 39.8708H11.7904C11.5365 42.8984 8.9988 45.2764 5.90562 45.2764C2.64404 45.2764 0 42.6324 0 39.3708C0 36.1092 2.64404 33.4652 5.90562 33.4652C8.99879 33.4652 11.5365 35.8432 11.7904 38.8708H36.5221C47.88 38.8708 58.458 33.2555 64.8315 23.9509C58.458 14.6464 47.88 9.03107 36.5221 9.03107H11.7904C11.5365 12.0586 8.9988 14.4367 5.90562 14.4367C2.64404 14.4367 0 11.7927 0 8.53107C0 5.26949 2.64404 2.62545 5.90562 2.62545C8.9988 2.62545 11.5365 5.0035 11.7904 8.03107H36.5221C48.075 8.03107 58.844 13.6765 65.426 23.0533C65.5687 22.8303 65.709 22.6054 65.8469 22.3785L70.7348 14.3371C74.1058 8.79122 80.1257 5.40562 86.6157 5.40562C87.9537 5.40562 89.2716 5.54951 90.5505 5.82655C91.5315 3.92494 93.5151 2.62472 95.8022 2.62472C99.0638 2.62472 101.708 5.26875 101.708 8.53034C101.708 9.76105 101.331 10.9038 100.687 11.8498C101.352 12.6205 101.958 13.4512 102.497 14.3371L107.755 22.9883L111.418 16.9625C114.789 11.4167 120.809 8.03107 127.299 8.03107C131.637 8.03107 135.765 9.54376 139.032 12.2032C139.986 11.5427 141.143 11.1558 142.391 11.1558C145.653 11.1558 148.297 13.7998 148.297 17.0614C148.297 18.9387 147.421 20.6114 146.055 21.6931L146.843 22.9883L152.101 14.3371C155.472 8.79122 161.492 5.40562 167.982 5.40562C174.472 5.40562 180.492 8.79122 183.863 14.3371L186.192 18.1689C187.162 17.4719 188.351 17.0614 189.636 17.0614C190.606 17.0614 191.522 17.2955 192.33 17.7102L192.784 16.9625C196.155 11.4167 202.175 8.03107 208.665 8.03107C215.155 8.03107 221.175 11.4167 224.546 16.9625L228.209 22.9883L228.579 22.3785C230.735 18.8326 233.46 15.7515 236.597 13.2237C236.356 12.5799 236.225 11.8829 236.225 11.1551C236.225 7.89347 238.869 5.24944 242.13 5.24944C244.013 5.24944 245.689 6.13014 246.771 7.50197C250.561 6.13397 254.609 5.40562 258.759 5.40562H280.21C280.463 2.37804 283.001 0 286.094 0C289.356 0 292 2.64404 292 5.90562ZM77.1966 38.7609C78.1562 37.7108 78.7416 36.3129 78.7416 34.7783C78.7416 31.5167 76.0975 28.8726 72.836 28.8726C71.6533 28.8726 70.5518 29.2203 69.6282 29.8189L66.7014 25.0039C66.4852 24.6482 66.2632 24.2972 66.0357 23.9509C66.2632 23.6047 66.4852 23.2536 66.7014 22.8979L71.5893 14.8565C74.779 9.60904 80.4749 6.40562 86.6157 6.40562C87.8209 6.40562 89.009 6.52901 90.1644 6.76703C89.9904 7.32388 89.8966 7.91616 89.8966 8.53034C89.8966 11.7919 92.5407 14.436 95.8022 14.436C97.4675 14.436 98.9718 13.7467 100.045 12.6379C100.629 13.3289 101.164 14.0697 101.642 14.8565L107.17 23.9509L101.642 33.0454C98.4525 38.2928 92.7565 41.4962 86.6157 41.4962C83.2247 41.4962 79.9693 40.5194 77.1966 38.7609ZM193.639 30.4199L192.31 28.2339C194.228 27.2583 195.542 25.2661 195.542 22.967C195.542 21.0341 194.613 19.3181 193.178 18.2408L193.639 17.4819C196.828 12.2345 202.524 9.03107 208.665 9.03107C214.806 9.03107 220.502 12.2345 223.692 17.4819L227.624 23.9509L223.692 30.4199C220.502 35.6674 214.806 38.8708 208.665 38.8708C202.524 38.8708 196.828 35.6674 193.639 30.4199ZM183.73 22.967C183.73 21.3552 184.376 19.8943 185.423 18.8286L183.008 14.8565C179.819 9.60905 174.123 6.40562 167.982 6.40562C161.841 6.40562 156.145 9.60904 152.956 14.8565L147.428 23.9509L150.994 29.8184C151.918 29.2196 153.019 28.8719 154.202 28.8719C157.464 28.8719 160.108 31.5159 160.108 34.7775C160.108 36.3124 159.522 37.7104 158.563 38.7606C161.335 40.5193 164.591 41.4962 167.982 41.4962C174.123 41.4962 179.819 38.2928 183.008 33.0454L186.21 27.778C184.709 26.7072 183.73 24.9514 183.73 22.967ZM138.247 12.8543C137.159 13.9254 136.485 15.4147 136.485 17.0614C136.485 20.323 139.129 22.967 142.391 22.967C143.416 22.967 144.381 22.7057 145.221 22.246L146.257 23.9509L142.325 30.4199C139.136 35.6674 133.44 38.8708 127.299 38.8708C121.158 38.8708 115.462 35.6674 112.272 30.4199L108.34 23.9509L112.272 17.4819C115.462 12.2345 121.158 9.03107 127.299 9.03107C131.335 9.03107 135.18 10.4153 138.247 12.8543Z" fill="white"/>
</svg>
